<?xml version="1.0" encoding="utf-8" ?>
<svg xmlns="http://www.w3.org/2000/svg" xmlns:xlink="http://www.w3.org/1999/xlink" width="512" height="512">
	<path fill="#0B607F" d="M438.967 388.715C442.165 388.227 445.631 386.758 448.655 385.623L448.743 386.003C446.89 386.725 445.251 386.551 446 388.75L449.5 388.689C450.326 388.663 450.413 388.738 451.064 389.215C447.072 389.369 442.831 389.65 438.875 389.183L438.967 388.715Z"/>
	<path fill="#073B4C" d="M104.538 387.878L111.484 387.044C117.755 389.084 121.182 387.606 125.734 388.304L126.434 388.822C120.841 389.307 115.026 388.991 109.409 388.993L104.254 388.997C103.485 389.001 102.708 389.173 101.946 389.089C102.745 388.626 103.675 388.27 104.538 387.878Z"/>
	<defs>
		<linearGradient id="gradient_0" gradientUnits="userSpaceOnUse" x1="433.61401" y1="55.6353" x2="423.38199" y2="91.965599">
			<stop offset="0" stop-color="#10102F"/>
			<stop offset="1" stop-color="#02776A"/>
		</linearGradient>
	</defs>
	<path fill="url(#gradient_0)" d="M415.208 71.759L451.671 69.908C454.5 69.8991 457.952 70.2357 460.66 69.3539L461 69.2386C465.122 67.9121 468.183 62.7884 469.462 67.8883L469.551 68.25C469.823 69.3347 470.008 70.1587 469.836 71.2763C468.192 72.3063 467.152 73.9091 466.431 75.6866C465.275 76.1897 464.122 76.3908 462.892 76.6126C460.397 77.0914 460.819 77.589 458.979 79.1222C458.099 79.0395 456.931 79.2583 456.216 78.75L456.653 77.4652C456.819 76.9687 457.218 76.4809 457.503 76.0379L452.328 75.7177L424.971 74.6637L424.61 75.8298C423.049 75.9999 421.353 76.2881 419.794 76.2224C414.822 76.9266 410.243 79.1214 405.541 80.7632L395.148 84.0492C393.564 84.5682 391.248 85.7264 389.604 85.7843C389.262 84.4319 388.697 83.3857 387.939 82.2198C387.286 81.5551 386.891 80.823 386.68 79.9163C393.372 74.4972 406.39 71.9904 415.208 71.759ZM416.086 74.704C409.418 75.022 402.613 75.6203 396.381 78.2204L387.939 82.2198C388.697 83.3857 389.262 84.4319 389.604 85.7843C391.248 85.7264 393.564 84.5682 395.148 84.0492L405.541 80.7632C410.243 79.1214 414.822 76.9266 419.794 76.2224C420.209 75.6429 420.406 75.3233 420.084 74.6706L416.086 74.704Z"/>
	<path fill="#E4FCFE" d="M420.084 74.6706C421.666 74.4706 423.386 74.5084 424.971 74.6637L424.61 75.8298C423.049 75.9999 421.353 76.2881 419.794 76.2224C420.209 75.6429 420.406 75.3233 420.084 74.6706Z"/>
	<path fill="#F4F8E3" d="M457.503 76.0379L462.892 76.6126C460.397 77.0914 460.819 77.589 458.979 79.1222C458.099 79.0395 456.931 79.2583 456.216 78.75L456.653 77.4652C456.819 76.9687 457.218 76.4809 457.503 76.0379Z"/>
	<path fill="#073B4C" d="M469.836 71.2763L470.09 71.2843C471.198 71.2169 472.615 70.4585 473.748 70.1843C484.662 67.5445 503.388 70.374 503.712 84.2498C503.869 90.9584 502.894 97.5732 502.529 104.249C502.246 109.402 502.787 114.694 502.738 119.886C502.706 123.287 502.094 126.613 502.093 130L502.248 216.174C502.231 223.94 502.246 232.463 500.363 240.032L500.013 242.579C503.029 246.877 501.59 252.487 501.597 257.479L502.353 275.909C502.355 279.029 501.555 281.978 501.517 285.088L501.62 342.231C501.73 344.165 502.091 346.054 502.164 348.007L502.236 362.507C502.231 369.116 502.66 376.031 498.215 381.468L497.941 381.808C494.68 385.751 488.915 387.119 484.22 388.458C484.009 386.375 486.385 383.499 486.947 381.309C487.753 378.168 487.754 375.214 487.754 371.989L487.32 359.293C487.152 356.953 486.764 354.589 486.706 352.25L486.719 344.528C486.767 343.325 487.282 340.288 486.705 339.31L484.795 339.091L484.052 339.557C480.356 341.861 478.529 339.298 475.322 338.896C475.861 338.766 476.269 338.584 476.756 338.321C474.041 337.883 471.677 338.584 472.614 335.375L472.125 334.746C471.95 333.631 472.567 332.204 472.878 331.124C475.359 328.851 471.87 328.888 478.117 328.791C480.878 328.748 484.023 328.753 486.663 327.903L486.258 313.095C486.125 310.498 486.105 307.976 485.745 305.39L485.521 299.745C485.896 295.674 484.952 291.344 484.756 287.266L484.177 273.391C484.087 269.75 484.352 265.628 483.59 262.06L482.978 248.869C482.606 246.98 482.655 245.166 482.148 243.238C482.412 241.838 481.627 239.394 481.057 238.139C481.905 237.498 482.586 236.76 483.306 235.986C484.138 234.241 485.177 232.562 485.691 230.688L485.805 230.25C486.254 228.607 486.251 227.182 486.212 225.49C486.681 224.046 486.594 222.541 486.606 221.061L486.496 214.401C486.443 212.496 486.626 210.751 487.157 208.915C491.332 203.883 490.246 203.341 486.768 200.63C486.183 200.202 485.593 199.931 484.934 199.642L484.482 199.277C484.947 196.869 484.896 194.103 485.085 191.635C485.313 190.189 485.689 188.714 485.732 187.25L485.605 148.791C485.497 146.419 485.526 144.247 485.64 141.875L485.191 98.25C485.325 93.8372 486 89.3622 486.341 84.9458C486.662 83.5119 487.826 80.2549 487.247 78.9929C486.762 78.7302 486.066 78.6413 485.526 78.5042C480.6 77.8473 470.158 75.279 466.431 75.6866C467.152 73.9091 468.192 72.3063 469.836 71.2763Z"/>
	<path fill="#36F7D2" d="M483.306 235.986C483.608 237.62 483.327 239.303 483.272 240.956L483.102 248.869C482.606 246.98 482.655 245.166 482.148 243.238C482.412 241.838 481.627 239.394 481.057 238.139C481.905 237.498 482.586 236.76 483.306 235.986Z"/>
	<path fill="#06D6A0" d="M476.756 338.321L486.179 338.317L484.795 338.997L484.052 339.557C480.356 341.861 478.529 339.298 475.322 338.896C475.861 338.766 476.269 338.584 476.756 338.321Z"/>
	<path fill="#073B4C" d="M296.868 384.907C297.753 385.083 303.023 385.986 303.853 386.017C305.314 386.082 306.772 385.877 308.222 385.721C314.76 386.858 321.919 387.68 328.551 387.885C331.533 387.978 336.981 386.613 339.664 387.904L339.645 388.682C342.057 388.204 344.237 387.914 346.591 387.113C348.872 387.718 360.277 386.881 361.205 388.186L361.473 388.711L355.509 389.717C349.751 390.344 344.2 389.277 338.531 389.471C334.811 390.068 330.937 389.534 327.2 390.177L326.076 390.294C325.463 390.342 324.999 390.446 324.416 390.656L323.26 391.07C323.018 393.212 323.179 406.377 322.884 406.998C322.004 408.849 317.547 409.23 315.532 414.018C318.054 412.117 320.277 410.218 323.018 408.622C323.608 413.859 322.617 429.078 323.787 432.302C324.009 432.916 325.034 433.35 325.208 434.125C325.802 436.773 325.755 435.685 328.75 437.189C338.104 441.885 351.943 443.799 356.002 455L356.118 455.312C357.007 457.847 356.197 460.601 355.035 462.902C347.821 477.188 325.334 474.583 312.314 474.544L189.541 474.614C183.901 474.744 179.931 475.584 173.651 475.197C156.733 474.157 147.943 454.87 163.125 445.591L163.534 445.334C170.432 441.079 179.467 441.461 187.265 441.274C187.275 430.86 186.303 422.607 188.624 412.037C190.771 402.256 191.677 401.346 191.735 391.039C189.687 390.38 186.959 390.416 184.791 390.289L166.523 389.813C164.733 389.779 162.966 389.504 161.18 389.436L150.807 389.359L144.313 389.337L144.488 388.88C144.461 388.355 144.199 388.285 143.834 387.932C144.919 387.848 145.899 387.798 146.926 387.4L147.866 387.455C150.242 386.954 152.862 387.042 155.276 386.93C158.006 387.77 162.243 387.5 164.918 386.593C166.855 386.348 168.717 386.791 170.605 386.094L182.453 386.125L189.66 385.51C195.515 386.023 201.812 385.472 207.572 386.428C209.758 386.599 212.009 386.806 214.191 386.623L214.201 386.595L219.954 386.482L228.358 386.541C229.906 386.628 231.421 386.917 232.976 386.965L247.199 387.045C248.271 387.048 250.563 387.394 251.455 387.059C255.05 387.491 258.399 387.672 261.952 386.885C265.258 387.238 268.704 386.853 271.876 385.874L272.714 385.163C274.321 385.03 275.834 384.817 277.386 385.386L277.595 386.194L280.888 386.536C286.098 386.281 291.756 386.005 296.868 384.907ZM223.627 443.272C219.997 445.065 217.07 447.419 213.777 449.711L192.689 465.105C190.151 467.027 187.332 468.629 184.944 470.72L188.273 471.144C196.067 470.371 218.608 453.823 224.569 446.406L226.238 443.815L223.627 443.272ZM258.705 468.61C259.857 467.577 260.831 466.387 261.654 465.079L262.974 460.125C262.511 459.674 262.11 459.63 261.5 459.49L261.341 458.638C263.454 457.324 264.805 454.452 266.031 452.375L266 452.055C263.54 452.089 261.55 456.516 260.664 458.416C259.969 459.904 254.512 462.685 253.03 463.786C249.45 466.445 246.19 469.818 242.535 472.311C249.351 471.848 252.688 472.224 258.705 468.61ZM240.775 455.375C237.688 457.214 234.863 459.381 231.703 461.114C225.338 464.606 218.728 467.328 213 471.875L213.996 472.435C225.408 474.026 225.038 472.064 232.54 464.62C235.421 461.761 239.057 458.759 241.43 455.491L240.775 455.375ZM311.855 450.625C300.438 456.847 298.159 465.081 282.069 470.625L282.375 470.935C285.183 470.752 288.715 470.887 291.408 470.123C297.971 468.262 309.842 456.435 312.24 450.762L311.855 450.625ZM277.42 441.899L270.492 442.484C266.895 442.944 268.722 444.757 267.639 449.219L269.802 447.731C273.709 445.718 277.855 444.172 281.435 441.596L277.42 441.899ZM209.929 414.125C207.982 415.203 201.199 424.088 207.156 421.772C209.976 420.543 214.38 416.812 210.608 414.042L209.929 414.125ZM269.7 403.375C263.86 404.682 261.999 404.558 262.51 410.738L263.067 410.875C265.227 409.24 269.482 405.967 270.582 403.375L269.7 403.375ZM292.55 440.344C290.683 440.837 289.713 441.209 288.432 442.736L288.625 443.864L292.147 443.629C293.891 443.155 299.609 440.45 295.25 440.249L292.55 440.344ZM257.744 441.875C254.376 442.83 250.771 445.121 249.018 448.25L249.875 448.329C252.892 446.999 256.984 444.882 258.748 442L257.744 441.875ZM309.067 395.125L301.002 404.625C305.513 402.537 307.537 399.749 309.42 395.262L309.067 395.125Z"/>
	<path fill="#049F76" d="M323.589 443.625C324.407 443.438 325.586 443.717 326.141 444.355L325.623 444.923L324.138 445.875C323.67 445.28 323.691 444.377 323.589 443.625Z"/>
	<path fill="#7BFEA3" d="M238.019 394.891C238.936 393.959 240.538 393.019 241.801 393.714L242.022 394.529C241.398 394.593 240.963 394.683 240.375 394.877L238.875 395.26C238.466 395.18 238.38 395.145 238.019 394.891Z"/>
	<path fill="#049F76" d="M339.247 454.875L339.938 455.375C338.519 457.051 337.095 458.539 335.375 459.908L334.894 459.828C335.37 458.349 337.892 455.558 339.247 454.875Z"/>
	<path fill="#1A6C7A" d="M258.705 468.61C259.857 467.577 260.831 466.387 261.654 465.079L261.884 465.462C263.961 468.828 263.855 468.009 258.705 468.61Z"/>
	<path fill="#06D6A0" d="M203.355 442.625L203.941 442.57C202.481 444.27 199.341 445.719 197.375 446.877C197.013 447.057 197.21 447.01 196.779 447L196.815 446.516C198.098 444.32 201.088 443.469 203.355 442.625Z"/>
	<path fill="#081824" d="M146.926 387.4L147.866 387.455L149.633 387.652L148.399 387.871L149.192 388.572C149.898 388.692 150.24 388.765 150.807 389.235L144.313 389.337L144.488 388.88C144.461 388.355 144.199 388.285 143.834 387.932C144.919 387.848 145.899 387.798 146.926 387.4Z"/>
	<path fill="#0B607F" d="M272.714 385.163C274.321 385.03 275.834 384.817 277.386 385.386L277.595 386.194L280.888 386.536C278.13 387.289 274.559 386.817 271.876 385.874L272.714 385.163Z"/>
	<path fill="#06D6A0" d="M320.936 442.594C321.775 442.627 322.097 442.771 322.808 443.219L322.814 443.539C321.297 444.335 319.915 444.7 318.233 444.922C317.464 444.94 316.745 445.123 316.091 444.696L316.375 444.062C317.765 442.855 319.182 442.739 320.936 442.594Z"/>
	<path fill="#E4FCFE" d="M316.957 468.834L325.136 465.337C322.745 467.621 320.125 469.907 317.042 471.202L317.099 470.822C317.265 469.956 317.244 469.684 316.957 468.834Z"/>
	<defs>
		<linearGradient id="gradient_1" gradientUnits="userSpaceOnUse" x1="311.71799" y1="470.995" x2="314.73801" y2="470.80499">
			<stop offset="0" stop-color="#E5FFFF"/>
			<stop offset="1" stop-color="#FEFFFF"/>
		</linearGradient>
	</defs>
	<path fill="url(#gradient_1)" d="M317.042 471.202C314.238 472.188 311.029 472.286 308.081 472.587L316.957 468.834C317.244 469.684 317.265 469.956 317.099 470.822L317.042 471.202Z"/>
	<path fill="#6BEFDC" d="M307.388 441.282C308.647 441.256 310.487 440.977 311.625 441.522L311.499 441.996C310.57 442.721 309.69 443.165 308.6 443.606C303.349 445.382 304.687 442.111 307.388 441.282Z"/>
	<path fill="#7BFEA3" d="M274.968 415.627C273.895 417.077 266.252 426.146 265.375 426.96L265.061 426.771C264.088 422.241 271.893 417.602 274.968 415.627Z"/>
	<path fill="#78F5BD" d="M242.022 394.529C242.599 397.368 238.12 400.398 235.826 400.858L235.125 400.957C233.55 398.953 236.539 396.187 237.961 394.923L238.019 394.891C238.38 395.145 238.466 395.18 238.875 395.26L240.375 394.877C240.963 394.683 241.398 394.593 242.022 394.529Z"/>
	<path fill="#118AB2" d="M236.082 328.393C238.786 328.576 246.957 326.83 247.721 327.625L246.832 329.146C248.056 329.987 251.67 329.904 253.426 330.642L253.425 330.672C257.298 331.301 275.173 329.046 275.571 329.5L275.695 331C275.544 331.596 275.43 332.241 275.217 332.816L276.75 333.102C278.696 333.473 280.634 333.35 282.605 333.301L292.524 333.013C295.191 333.018 296.111 334.31 298.022 332.189C299.171 332.547 300.197 332.559 301.386 332.576L305.004 331.447C308.788 331.645 320.916 327.957 323.665 331.125C324.402 331.435 325.383 331.201 326.168 331.111L328.646 330.751C329.988 331.065 331.339 330.669 332.676 330.519L357.462 330.337C359.434 330.377 361.577 330.051 363.499 330.453L374.149 329.985C374.704 329.8 377.485 330.14 378.265 330.158L390.315 330.021L394.218 329.683C396.975 330.405 405.794 330.582 409.486 330.708L424.652 330.754C428.284 330 432.268 330.235 435.956 330.231C436.986 331.66 440.315 330.339 441.747 330.018L470.904 329.08L472.625 329.515C472.966 330.18 472.923 330.366 472.878 331.124C472.567 332.204 471.95 333.631 472.125 334.746L472.614 335.375C471.677 338.584 474.041 337.883 476.756 338.321C476.269 338.584 475.861 338.766 475.322 338.896C478.529 339.298 480.356 341.861 484.052 339.557L484.795 339.091L486.705 339.31C487.282 340.288 486.767 343.325 486.719 344.528L486.706 352.25C486.764 354.589 487.152 356.953 487.32 359.293L487.754 371.989C487.754 375.214 487.753 378.168 486.947 381.309C486.385 383.499 484.009 386.375 484.22 388.458C478.657 389.64 470.384 390.93 464.649 389.82C468.749 388.062 471.132 386.171 473.151 382.148C468.805 383.615 464.97 386.429 461.027 388.721C459.248 389.755 453.137 389.282 451.064 389.304C450.413 388.738 450.326 388.663 449.5 388.689L446 388.75C445.251 386.551 446.89 386.725 448.743 386.003L448.655 385.623C445.631 386.758 442.165 388.227 438.967 388.715L438.875 389.01C434.198 390.478 428.128 390.006 423.259 389.741C427.83 385.553 433.174 382.705 435.277 375.731C431.72 379.013 427.861 381.916 423.96 384.768C415.513 390.943 414.703 389.931 404.54 389.785L404.551 389.663C405.718 388.502 406.571 387.017 407.48 385.649L412.297 377.593C409.192 379.865 406.192 382.215 403.586 385.069C401.01 387.889 401.408 389.434 397.25 389.43L361.663 389.362C367.208 388.064 375.284 385.603 376.97 379.25L376.625 378.938C372.82 379.748 362.347 385.937 361.473 388.711L361.205 388.186C360.277 386.881 348.872 387.718 346.591 387.216C344.237 387.914 342.057 388.204 339.645 388.682L339.664 387.904C336.981 386.613 331.533 387.978 328.551 387.885C321.919 387.68 314.76 386.858 308.222 385.721C306.772 385.877 305.314 386.082 303.853 386.017C303.023 385.986 297.753 385.083 296.868 384.907C291.756 386.005 286.098 386.281 280.888 386.536L277.595 386.194L277.386 385.386C275.834 384.817 274.321 385.03 272.714 385.163L271.876 385.874C268.704 386.853 265.258 387.238 261.952 386.885C258.399 387.672 255.05 387.491 251.455 387.197C250.563 387.394 248.271 387.048 247.199 387.045L232.976 386.965C231.421 386.917 229.906 386.628 228.358 386.541L219.954 386.474L214.201 386.527L214.191 386.623C212.009 386.806 209.758 386.599 207.572 386.509C201.812 385.472 195.515 386.023 189.66 385.591L182.453 386.119L170.605 386.066C168.717 386.791 166.855 386.348 164.918 386.593C162.243 387.5 158.006 387.77 155.276 386.915C152.862 387.042 150.242 386.954 147.866 387.336L146.926 387.4C145.899 387.798 144.919 387.848 143.834 387.932C144.199 388.285 144.461 388.355 144.488 388.88L144.313 389.245L126.434 388.882L125.734 388.304C121.182 387.606 117.755 389.084 111.484 387.044L104.538 387.878C103.675 388.27 102.745 388.626 101.946 389.137L58.7674 390.087L58.6519 389.313C57.6195 389.315 56.8288 389.331 55.875 388.907L55.6362 388.154C55.5468 383.24 34.8693 383.073 29.8359 381.384C23.1387 379.137 23.8269 374.81 23.7945 368.849L23.726 357.673C23.6624 354.058 23.1384 350.418 23.2926 346.819L37.9116 338.738C37.9325 338.069 37.8032 337.53 37.6356 336.891L43.5506 335.869C48.247 334.777 53.8534 335.444 58.563 335.942C60.9538 334.97 63.468 334.804 66.0107 334.488L66.8363 334.835C68.2856 335.41 70.6199 335.574 72.1797 335.067C75.568 333.965 86.072 333.321 89.1329 335.405C90.3798 334.91 91.6549 334.449 93.0001 334.756C95.8512 336.08 100.652 334.459 104.306 335.666L109.096 337.484C110.622 338.199 112.16 337.591 113.443 338.076L115.512 337.917L115.515 337.869C116.603 337.242 118.33 337.451 119.586 337.386L127.701 336.781C130.053 336.651 132.076 337.327 134.375 337.533L136.066 337.69L139.124 335.046L148.089 335.237C153.818 335.394 158.838 334.279 163.709 334.303C165.726 334.313 167.769 335.173 169.875 335.193L170.595 335.217C169.833 334.528 167.833 334.686 166.75 334.5L164.789 334.023C166.406 332.809 166.103 332.499 168.164 332.739L171.065 332.954C172.075 334.463 173.235 334.537 171.627 335.625L171.97 335.9L173.473 334.966C175.062 335.513 176.734 336.198 178.402 336.419C180.216 336.554 182.182 336.343 184.006 336.284L194.48 335.789L196.564 335.439C199.116 335.061 201.956 335.37 204.505 335.709L212.297 331.364L218.748 329.082C219.084 329.515 219.358 329.924 219.612 330.409C222.052 328.979 224.472 328.372 227.26 328.042L231.336 328.446C232.946 328.526 234.477 328.549 236.082 328.393ZM470.904 329.08C470.556 331.436 469.891 333.397 468.806 335.518C466.345 338.007 463.139 340.452 461.352 343.475C466.178 341.46 470.085 339.467 475.322 338.896C475.861 338.766 476.269 338.584 476.756 338.321C474.041 337.883 471.677 338.584 472.614 335.375L472.125 334.746C471.95 333.631 472.567 332.204 472.878 331.124C472.923 330.366 472.966 330.18 472.625 329.515L470.904 329.08ZM55.6362 388.154L55.875 388.907C56.8288 389.331 57.6195 389.315 58.6519 389.313L60.0075 389.121C64.1786 388.184 69.0669 382.399 71.3221 378.874C66.8575 380.188 59.0067 385.219 55.6362 388.154ZM190.266 378.16C188.137 379.563 182.728 383.528 181.588 385.945L182.453 386.119L189.66 385.5C190.802 383.308 192.5 381.262 193.919 379.23C193.466 379.481 193.111 379.683 192.763 380.072L191.5 379.658C190.955 379.32 190.409 378.793 190.266 378.16ZM214.201 386.527L219.954 386.454L222.342 386.268C223.692 384.616 224.415 385.01 226.537 384.753L226.978 384.25C226.851 383.205 226.651 382.128 226.11 381.21C222.616 381.222 210.187 385.88 214.201 386.527ZM438.967 388.715C442.165 388.227 445.631 386.758 448.655 385.623C450.083 384.699 455.734 381.71 454.5 379.542C451.215 379.38 440.943 385.612 438.967 388.715ZM104.538 387.878L111.484 387.044C114.668 385.215 117.646 381.464 119.387 378.251L113.24 381.853C110.404 383.471 106.394 385.121 104.538 387.878ZM146.926 387.4L147.866 387.336C150.242 386.954 152.862 387.042 155.276 386.915C155.934 386.529 158.948 379.849 159.808 378.215C155.567 381.532 150.822 383.512 146.926 387.4ZM171.97 335.9C168.816 338.812 165.648 341.312 162.112 343.743C168.213 341.31 173.061 340.469 178.402 336.419C176.734 336.198 175.062 335.513 173.473 334.966L171.97 335.9ZM310.412 381.625C308.263 382.893 305.594 384.224 303.853 386.017C305.314 386.082 306.772 385.877 308.222 385.721C312.917 384.673 316.106 381.618 318.877 377.834C316.014 378.544 312.953 380.118 310.412 381.625ZM339.664 387.904L339.645 388.682C342.057 388.204 344.237 387.914 346.591 387.113C348.017 385.77 348.891 384.343 349.776 382.626C345.672 383.147 342.427 384.342 339.677 387.545L339.664 387.904ZM128.931 385.403C129.39 385.659 129.78 385.808 130.27 385.98L132.286 386.619C132.872 386.72 133.434 386.516 133.992 386.357C135.92 384.245 137.093 382.049 138.081 379.387C134.504 380.698 131.767 382.915 128.931 385.403ZM190.266 378.16C190.409 378.793 190.955 379.32 191.5 379.658L192.763 380.072C193.111 379.683 193.466 379.481 193.919 379.23L199.808 372.594C196.683 373.802 193.004 376.278 190.266 378.16ZM165.73 384.428C168.919 384.744 171.054 380.449 173.958 379.459L175.031 377.258C171.027 378.948 168.273 380.683 165.73 384.428Z"/>
	<path fill="#6BEFDC" d="M315.731 339.77L310.144 341.566C311.436 340.273 312.758 339.322 314.293 338.355C314.829 338.801 315.309 339.207 315.731 339.77Z"/>
	<path fill="#AFFCFD" d="M222.342 386.07C223.692 384.616 224.415 385.01 226.537 384.753C229.781 387.878 223.126 386.391 222.342 386.07Z"/>
	<path fill="#AFFCFD" d="M410.937 336.021L413.293 336.29L409.682 339.205L409.686 338.375C409.249 337.908 408.889 337.382 408.222 337.285C409.128 336.692 409.886 336.293 410.937 336.021Z"/>
	<path fill="#AFFCFD" d="M43.5506 335.869L37.9116 338.738C37.9325 338.069 37.8032 337.53 37.6356 336.891L43.5506 335.869Z"/>
	<path fill="#36F7D2" d="M316.12 337.433C317.523 337.508 319.085 337.177 320.486 336.998C319.195 338.195 317.349 339.09 315.731 339.77C315.309 339.207 314.829 338.801 314.293 338.355L316.12 337.433Z"/>
	<path fill="#E4FCFE" d="M435.422 337.011C437.459 336.61 439.678 336.58 441.751 336.482C441.349 337.735 440.192 338.494 439.07 339.077L437.874 339.675C437.041 338.835 436.075 337.999 435.422 337.011Z"/>
	<path fill="#7CFAF7" d="M258.214 334.01C256.521 335.335 251.389 336.362 248.98 337.562L248.901 337.181C248.639 336.494 248.122 336.161 247.53 335.794L253.757 334.591L258.214 334.01Z"/>
	<path fill="#AFFCFD" d="M395.881 354.972C397.119 354.599 400.195 353.044 401.263 353.273C400.067 355.336 398.098 356.794 396.063 357.983C395.624 356.878 395.7 356.057 394.775 355.256L395.881 354.972Z"/>
	<path fill="#E4FCFE" d="M394.775 355.256C395.7 356.057 395.624 356.878 396.063 357.983C394.304 358.967 392.67 360.508 390.754 361.104L390.505 360.75C391.375 358.755 392.702 356.16 394.775 355.256Z"/>
	<path fill="#1A6C7A" d="M272.714 385.163C279.952 377.838 280.787 384.077 277.595 386.194L277.386 385.386C275.834 384.817 274.321 385.03 272.714 385.163Z"/>
	<path fill="#61B9CB" d="M397.561 351.282L398.125 351.481C399.266 350.706 400.44 350.13 401.6 349.419C401.579 350.501 401.821 352.386 401.263 353.273C400.195 353.044 397.119 354.599 395.881 354.972L395.262 354.15L395.266 354.002C396.221 353.141 396.89 352.397 397.561 351.282Z"/>
	<path fill="#E4FCFE" d="M429.782 337.526L430.422 337.509C430.058 338.92 424.983 344.547 423.4 345.933L423.122 345.76C422.399 346.33 422.33 346.244 421.45 346.212C422.818 344.336 423.697 341.995 425.082 340.221C425.667 339.472 426.486 339.56 427.023 338.584L427.203 338.227C428.033 337.912 428.92 337.738 429.782 337.526Z"/>
	<path fill="#AFFCFD" d="M66.0107 334.488L66.1095 334.917C62.5812 336.889 58.5943 340.053 54.375 339.747L54.375 339.26C55.647 338.023 57.141 337 58.563 335.942C60.9538 334.97 63.468 334.804 66.0107 334.488Z"/>
	<path fill="#E4FCFE" d="M165.73 384.428C168.919 384.744 171.054 380.449 173.958 379.459C173.008 381.686 171.924 384.061 170.605 386.094C168.717 386.791 166.855 386.348 164.918 386.593L164.423 386.25C164.809 385.572 165.221 385.019 165.73 384.428Z"/>
	<path fill="#6BEFDC" d="M89.1329 335.405C90.3798 334.91 91.6549 334.449 93.0001 334.756L82.3545 342.612C79.7752 344.586 77.4564 346.886 74.4379 348.164C77.4305 345.019 85.2974 338.117 89.1329 335.405Z"/>
	<path fill="#010101" d="M126.448 388.243C126.961 387.141 127.968 386.13 128.931 385.403C129.39 385.659 129.78 385.808 130.27 385.98L132.286 386.619C132.872 386.72 133.434 386.516 133.992 386.357L133.088 387.22C136.461 387.879 140.398 388.031 143.834 387.864C144.199 388.285 144.461 388.355 144.488 388.88L144.313 389.245L126.434 388.882L125.734 388.304L126.448 388.243Z"/>
	<path fill="#E4FCFE" d="M126.448 388.243C126.961 387.141 127.968 386.13 128.931 385.403C129.39 385.659 129.78 385.808 130.27 385.98L132.286 386.619C132.872 386.72 133.434 386.516 133.992 386.357L133.088 387.22C130.831 387.753 128.786 388.379 126.448 388.243Z"/>
	<path fill="#E4FCFE" d="M408.222 337.285C408.889 337.382 409.249 337.908 409.686 338.375L409.682 339.205C405.307 342.972 400.227 345.914 397.561 351.282C396.89 352.397 396.221 353.141 395.266 354.002L395.262 354.15C392.369 355.791 395.914 351.941 396.449 351.22C399.966 346.481 403.122 340.559 408.222 337.285Z"/>
	<path fill="#61B9CB" d="M299.161 382.918L297.625 382.811C289.769 382.488 299.06 378.15 301.63 377.502L301.987 377.414C303.236 377.094 304.221 377.006 305.5 377.034L305.728 377.375C305.103 378.152 304.47 378.934 303.712 379.587L301.497 381.348L299.161 382.918Z"/>
	<path fill="white" d="M389.417 336.284C388.697 338.292 373.227 349.285 371.161 350.432C374.427 346.53 380.445 340.063 384.99 337.495L385.286 337.31C386.671 336.835 387.968 336.503 389.417 336.284Z"/>
	<path fill="white" d="M421.45 346.212C422.33 346.244 422.399 346.33 423.122 345.76L423.4 345.933C423.162 346.306 422.949 346.609 422.625 346.912L422.815 347.375C421.499 351.124 420.524 353.396 416.945 355.125L410.495 357.951L421.45 346.212Z"/>
	<path fill="#1A6C7A" d="M301.497 381.348C303.977 381.754 306.44 379.598 309.271 379.875L310.412 381.625C308.263 382.893 305.594 384.224 303.853 386.017C303.023 385.986 297.753 385.083 296.868 384.907C297.707 384.314 298.423 383.626 299.161 382.918L301.497 381.348Z"/>
	<defs>
		<linearGradient id="gradient_2" gradientUnits="userSpaceOnUse" x1="243.892" y1="343.91599" x2="237.384" y2="340.371">
			<stop offset="0" stop-color="#C2FFFF"/>
			<stop offset="1" stop-color="#E5FFFF"/>
		</linearGradient>
	</defs>
	<path fill="url(#gradient_2)" d="M247.53 335.794C248.122 336.161 248.639 336.494 248.901 337.181L248.98 337.562C241.764 341.499 235.862 346.845 229.757 352.231C234.127 345.613 240.045 338.908 247.53 335.794Z"/>
	<path fill="#06D6A0" d="M251.455 387.197L251.594 386.945C253.42 384.3 258.292 382.8 260.793 380.595C261.395 380.064 263.047 378.054 263.689 377.952C262.49 379.968 258.314 382.441 260.605 382.332L261.279 382.299C262.015 382.315 263.287 382.742 263.784 383.319L264.812 383.501C265.383 382.938 265.929 382.478 266.312 381.751L267.062 380.812C267.361 380.353 268.57 377.635 269.677 377.062C269.05 378.89 267.115 381.634 265.797 383.042L261.952 386.885C258.399 387.672 255.05 387.491 251.455 387.197Z"/>
	<path fill="white" d="M139.124 335.046L148.089 335.237C142.911 338.423 133.182 343.94 128.091 345.854L136.066 337.69L139.124 335.046Z"/>
	<path fill="white" d="M115.512 337.917C114.762 338.983 113.439 339.664 112.356 340.364L107.625 343.604C101.696 348.043 96.6079 353.545 90.1627 357.291C93.8526 352.837 98.441 349.192 102.509 345.1L107.603 339.519C109.643 337.497 110.404 338.63 113.044 338.154L113.443 338.076L115.512 337.917Z"/>
	<path fill="white" d="M218.748 329.082C219.084 329.515 219.358 329.924 219.612 330.409L214.605 333.894L206.048 338.462C203.689 339.756 199.866 342.492 197.229 342.564C198.448 340.808 199.805 339.223 201.435 337.833L204.505 335.709L212.297 331.364L218.748 329.082Z"/>
	<path fill="#073B4C" d="M253.425 330.672C257.298 331.301 275.173 329.046 275.571 329.5L275.695 331C275.544 331.596 275.43 332.241 275.217 332.816C272.689 332.502 261.406 333.338 258.214 334.01L253.757 334.591C253.198 334.547 252.669 334.528 252.127 334.375C254.772 333.053 253.132 335.665 254.592 331.422C254.189 331.199 253.901 331.052 253.439 330.971L253.425 330.672Z"/>
	<path fill="white" d="M367.616 337.229L371.755 336.731C362.214 344.115 350.192 355.491 338.713 359.634C343.007 355.299 348.155 351.965 352.911 348.168C357.617 344.413 361.981 339.57 367.616 337.229Z"/>
	<path fill="#073B4C" d="M236.082 328.393C238.786 328.576 246.957 326.83 247.721 327.625L246.832 329.146C243.504 329.463 239.815 331.748 236.595 332.83C234.271 333.61 218.261 336.963 215.625 336.71L216.001 335.751C216.191 335.051 216.137 334.341 216.125 333.623L214.605 333.894L219.612 330.409C222.052 328.979 224.472 328.372 227.26 328.042L231.336 328.446C232.946 328.526 234.477 328.549 236.082 328.393Z"/>
	<path fill="#073B4C" d="M263.264 349.61C273.132 348.336 273.959 356.834 269.692 364.125C263.022 375.523 243.185 375.25 240.766 362.104L240.706 361.75C239.467 354.868 249.002 347.726 255.349 348.529L258.838 348.853C254.022 349.009 250.401 350.202 247.056 353.801C237.096 364.517 255.567 376.572 265.816 363.552C269.823 358.463 269.906 352.505 263.264 349.61Z"/>
	<path fill="#FFE901" d="M263.264 349.61C269.906 352.505 269.823 358.463 265.816 363.552C255.567 376.572 237.096 364.517 247.056 353.801C250.401 350.202 254.022 349.009 258.838 348.853L263.264 349.61Z"/>
	<path fill="#073B4C" d="M441.747 330.018L470.904 329.08C470.556 331.436 469.891 333.397 468.806 335.518C466.757 335.469 464.875 334.828 462.875 334.745C459.378 334.601 444.537 335.75 441.751 336.482C439.678 336.58 437.459 336.61 435.422 337.011C433.924 337.385 431.627 336.969 430.422 337.509L429.782 337.526C428.385 336.814 427.112 336.984 425.614 337.322L425.375 337.379C423.961 336.941 424.555 336.49 424.753 335.243C421.209 335.088 416.715 335.391 413.293 336.29L410.937 336.021C405.001 335.567 398.415 334.359 392.541 335.808C391.445 336.079 390.517 336.581 389.417 336.284C387.968 336.503 386.671 336.835 385.286 337.31C381.122 335.924 376.054 336.517 371.755 336.731L367.616 337.229C365.423 336.156 362.583 337.093 360.552 336.078C357.657 334.631 338.793 335.044 334.843 335.355L320.486 336.998C319.085 337.177 317.523 337.508 316.12 337.433C312.521 336.556 297.616 336.474 297.725 333.25C298.375 332.475 300.1 332.754 301.149 332.61L301.386 332.576L305.004 331.447C308.788 331.645 320.916 327.957 323.665 331.125C324.402 331.435 325.383 331.201 326.168 331.111L328.646 330.751C329.988 331.065 331.339 330.669 332.676 330.519L357.462 330.337C359.434 330.377 361.577 330.051 363.499 330.453L374.149 329.985C374.704 329.8 377.485 330.14 378.265 330.158L390.315 330.021L394.218 329.683C396.975 330.405 405.794 330.582 409.486 330.708L424.652 330.754C428.284 330 432.268 330.235 435.956 330.231C436.986 331.66 440.315 330.339 441.747 330.018Z"/>
	<path fill="#06D6A0" d="M139.358 76.2616C176.201 76.0809 202.92 62.2841 234.586 44.5838L246.153 37.8308C250.272 35.5206 254.369 32.9144 259.096 34.8092C264.949 37.1549 270.638 40.7522 276.08 43.9177L298.399 56.2378C317.149 65.6431 338.345 73.5942 359.416 75.5766C364.756 76.079 382.689 75.7294 386.406 79.6179L386.68 79.9163C386.891 80.823 387.286 81.5551 387.939 82.2198C388.697 83.3857 389.262 84.4319 389.604 85.7843C391.248 85.7264 393.564 84.5682 395.148 84.0492L405.541 80.7632C410.243 79.1214 414.822 76.9266 419.794 76.2224C421.353 76.2881 423.049 75.9999 424.61 75.8604L424.971 74.6637L452.328 75.5655L457.503 76.0379C457.218 76.4809 456.819 76.9687 456.653 77.4652L456.216 78.75C456.931 79.2583 458.099 79.0395 458.979 79.1222C460.819 77.589 460.397 77.0914 462.892 76.6126C464.122 76.3908 465.275 76.1897 466.431 75.6866C470.158 75.279 480.6 77.8473 485.526 78.5042C486.066 78.6413 486.762 78.7302 487.247 78.9929C487.826 80.2549 486.662 83.5119 486.341 84.9458C486 89.3622 485.325 93.8372 485.191 98.25L485.64 141.875C485.526 144.247 485.497 146.419 485.605 148.791L485.732 187.25C485.689 188.714 485.313 190.189 485.085 191.635C484.896 194.103 484.947 196.869 484.482 199.277L484.934 199.642C485.593 199.931 486.183 200.202 486.768 200.63C490.246 203.341 491.332 203.883 487.157 208.915C486.626 210.751 486.443 212.496 486.454 214.401L486.606 221.061C486.594 222.541 486.681 224.046 486.322 225.49C486.251 227.182 486.254 228.607 485.805 230.25L485.691 230.688C485.177 232.562 484.138 234.241 483.306 235.986C482.586 236.76 481.905 237.498 481.057 238.139C481.627 239.394 482.412 241.838 482.148 243.238C482.655 245.166 482.606 246.98 482.978 248.869L483.435 262.06C484.352 265.628 484.087 269.75 484.177 273.391L484.756 287.266C484.952 291.344 485.896 295.674 485.521 299.745L485.745 305.39C486.105 307.976 486.125 310.498 486.258 313.095L486.663 327.903C484.023 328.753 480.878 328.748 478.117 328.791C471.87 328.888 475.359 328.851 472.878 331.124C472.923 330.366 472.966 330.18 472.625 329.515L470.904 329.08L441.747 330.078C440.315 330.339 436.986 331.66 435.956 330.372C432.268 330.235 428.284 330 424.652 330.772L409.486 330.708C405.794 330.582 396.975 330.405 394.218 329.774L390.315 329.805L378.265 330.158C377.485 330.14 374.704 329.8 374.149 330.198L363.499 330.386C361.577 330.051 359.434 330.377 357.462 330.337L332.676 330.519C331.339 330.669 329.988 331.065 328.646 330.751L326.168 331.111C325.383 331.201 324.402 331.435 323.665 331.125C320.916 327.957 308.788 331.645 305.004 331.447L301.386 332.576C300.197 332.559 299.171 332.547 298.022 332.189C296.111 334.31 295.191 333.018 292.524 333.013L282.605 333.301C280.634 333.35 278.696 333.473 276.75 333.102L275.217 332.816C275.43 332.241 275.544 331.596 275.695 331L275.571 329.5C275.173 329.046 257.298 331.301 253.425 330.672L253.426 330.642C251.67 329.904 248.056 329.987 246.832 329.146L247.721 327.625C246.957 326.83 238.786 328.576 236.082 328.393C234.477 328.549 232.946 328.526 231.336 328.446L227.26 328.042C224.472 328.372 222.052 328.979 219.612 330.409C219.358 329.924 219.084 329.515 218.748 329.082L212.297 331.364L204.505 335.709C201.956 335.37 199.116 335.061 196.564 335.439L194.48 335.738L184.006 336.284C182.182 336.343 180.216 336.554 178.402 336.39C176.734 336.198 175.062 335.513 173.473 334.966L171.97 335.9L171.627 335.625C173.235 334.537 172.075 334.463 171.065 332.954L168.164 332.739C166.103 332.499 166.406 332.809 164.789 334.023L166.75 334.5C167.833 334.686 169.833 334.528 170.595 335.217L169.875 335.193C167.769 335.173 165.726 334.313 163.709 334.303C158.838 334.279 153.818 335.394 148.089 335.27L139.124 335.082L136.066 337.69L134.375 337.533C132.076 337.327 130.053 336.651 127.701 336.739L119.586 337.386C118.33 337.451 116.603 337.242 115.515 337.869L115.512 337.917L113.443 338.076C112.16 337.591 110.622 338.199 109.096 337.484L104.306 335.666C100.652 334.459 95.8512 336.08 93.0001 334.922C91.6549 334.449 90.3798 334.91 89.1329 335.405C86.072 333.321 75.568 333.965 72.1797 335.067C70.6199 335.574 68.2856 335.41 66.8363 334.835L66.0107 334.488C63.468 334.804 60.9538 334.97 58.563 335.942C53.8534 335.444 48.247 334.777 43.5506 335.869L37.6356 336.891C37.8032 337.53 37.9325 338.069 37.9116 338.738L23.3317 346.819C23.1384 350.418 23.6624 354.058 23.726 357.673L23.7945 368.849C23.8269 374.81 23.1387 379.137 29.8359 381.384C34.8693 383.073 55.5468 383.24 55.6362 388.154L55.875 388.907C56.8288 389.331 57.6195 389.315 58.6519 389.313L58.7674 390.204L58.5797 390.196C53.8895 390.149 49.2239 390.899 44.55 391.268C28.8163 392.513 10.368 390.387 9.57191 370.484L9.52322 283.216C9.51419 278.344 8.80909 273.631 8.78739 269.203L8.64552 120.625L7.46667 97.723C7.03329 78.0637 10.412 71.7023 30.3687 70.6441L52.8985 69.6454C58.4669 69.4503 63.9454 69.8059 69.5 69.9305L93.8799 71.3586C98.9338 71.6118 104.067 71.3116 109.097 71.7121C115.065 72.1874 120.691 73.607 126.557 74.5141L139.358 76.2616ZM58.7674 390.204L58.6519 389.313C57.6195 389.315 56.8288 389.331 55.875 388.907L55.6362 388.154C55.5468 383.24 34.8693 383.073 29.8359 381.384C23.1387 379.137 23.8269 374.81 23.7945 368.849L23.726 357.673C23.6624 354.058 23.1384 350.418 23.3317 346.819L37.9116 338.738C37.9325 338.069 37.8032 337.53 37.6356 336.891L43.5506 335.869C48.247 334.777 53.8534 335.444 58.563 335.942C60.9538 334.97 63.468 334.804 66.0107 334.488L66.8363 334.835C68.2856 335.41 70.6199 335.574 72.1797 335.067C75.568 333.965 86.072 333.321 89.1329 335.405C90.3798 334.91 91.6549 334.449 93.0001 334.922C95.8512 336.08 100.652 334.459 104.306 335.666L109.096 337.484C110.622 338.199 112.16 337.591 113.443 338.076L115.512 337.917L115.515 337.869C116.603 337.242 118.33 337.451 119.586 337.386L127.701 336.739C130.053 336.651 132.076 337.327 134.375 337.533L136.066 337.69L139.124 335.082L148.089 335.27C153.818 335.394 158.838 334.279 163.709 334.303C165.726 334.313 167.769 335.173 169.875 335.193L170.595 335.217C169.833 334.528 167.833 334.686 166.75 334.5L164.789 334.023C166.406 332.809 166.103 332.499 168.164 332.739L171.065 332.954C172.075 334.463 173.235 334.537 171.627 335.625L171.97 335.9L173.473 334.966C175.062 335.513 176.734 336.198 178.402 336.39C180.216 336.554 182.182 336.343 184.006 336.284L194.48 335.738L196.564 335.439C199.116 335.061 201.956 335.37 204.505 335.709L212.297 331.364L211.584 330.723C206.522 329.766 201 330.346 195.853 330.189L175.763 329.451C167.374 329.089 145.367 328.437 139.574 331.174L139.375 331.273C137.374 327.135 133.486 328.623 130.125 329.51C126.749 330.401 122.885 330.172 119.407 330.172L64.5107 329.711C61.1713 329.679 57.8548 330.204 54.5099 330.164L43.0801 329.581L38.102 329.57C37.0676 329.347 35.8312 329.505 34.7741 329.528L28.1558 329.73C26.8792 329.76 25.4156 329.826 24.2113 329.37C23.5209 329.29 23.526 329.316 23.0592 328.807C23.3004 327.565 23.3038 326.223 23.2929 324.959C23.0184 321.703 22.8225 317.169 23.7216 313.982L23.7336 307.546C23.0462 304.607 23.004 300.39 23.7458 297.405L23.5202 290.293C23.2983 287.36 23.4432 271.941 23.8657 269.704L23.9312 265.09C23.5038 261.086 23.2918 253.189 24.2759 249.401C24.5063 247.938 24.3298 246.375 24.0481 244.897C23.5413 239.828 23.3122 233.591 23.8558 228.545L23.9375 222.715C23.5601 220.572 23.6771 218.344 23.6901 216.175L23.7497 206.919L23.7971 205.554C23.8043 202.978 23.4977 200.362 23.7563 197.796L23.5824 189.935C23.1295 187.832 23.2389 185.525 23.2131 183.379L22.9839 173.494L22.7772 169.915C21.8929 164.716 21.9344 157.315 22.4027 151.985L22.4601 147.193C21.6181 143.314 22.2155 136.686 22.7204 132.769C22.7196 130.341 22.4608 128.704 23.4092 126.336C24.3189 125.248 25.9846 124.574 27.1886 123.83L52.1226 108.558L83.28 87.1319L100.955 76.4387C102.717 75.6257 104.117 75.2054 106.052 75.0411L117.246 75.0417C120.139 74.4141 123.576 74.7936 126.557 74.5141C120.691 73.607 115.065 72.1874 109.097 71.7121C104.067 71.3116 98.9338 71.6118 93.8799 71.3586L69.5 69.9305C63.9454 69.8059 58.4669 69.4503 52.8985 69.6454L30.3687 70.6441C10.412 71.7023 7.03329 78.0637 7.46667 97.723L8.64552 120.625L8.78739 269.203C8.80909 273.631 9.51419 278.344 9.52322 283.216L9.57191 370.484C10.368 390.387 28.8163 392.513 44.55 391.268C49.2239 390.899 53.8895 390.149 58.5797 390.196L58.7674 390.204ZM298.038 329.735C297.616 330.646 297.809 331.146 298.009 332.096L298.022 332.189C299.171 332.547 300.197 332.559 301.386 332.576L305.004 331.447C306.323 330.553 308.05 328.937 307.416 327.094C303.191 326.395 301.43 327.532 298.038 329.735Z"/>
	<path fill="#049F76" d="M150.947 227.324L151.909 229.306C151.087 229.462 150.39 229.472 149.556 229.423L150.947 227.324Z"/>
	<path fill="#1A6C7A" d="M367.745 281.125L367.937 281.036C369.979 280.359 373.464 282.337 375.369 283.2C372.993 283.05 369.635 282.712 367.745 281.125Z"/>
	<path fill="#073B4C" d="M112.872 234.497L114.375 234.518C115.057 234.883 115.299 235.029 115.663 235.75L115.375 236.12C114.3 236.435 113.199 236.526 112.09 236.653C111.212 236.854 109.897 236.693 108.97 236.704C110.244 235.758 111.398 235.086 112.872 234.497Z"/>
	<path fill="#7CFAF7" d="M65.9985 322.204C66.645 323.129 67.1818 323.214 68.1994 323.59L67.0555 324.899L61.3534 324.142C62.8145 323.288 64.3897 322.708 65.9985 322.204Z"/>
	<path fill="#6BEFDC" d="M241.937 317.757L242.398 318.569C240.71 320.065 238.511 322.408 236.125 322.449L235.902 322.125C237.127 320.307 239.887 318.463 241.937 317.757Z"/>
	<path fill="#64D6DA" d="M133.104 224.178C133.631 222.467 134.703 221.706 135.063 220.478C135.321 221.236 135.36 222.022 136.168 222.364L137.641 222.685C136.272 223.703 135.292 224.628 134.562 226.217C133.914 225.682 133.537 224.893 133.104 224.178Z"/>
	<path fill="#073B4C" d="M112.368 286.625C113.933 286.226 115.883 287.432 116.653 288.75L116.347 289.625C114.578 291.449 112.199 288.536 112.368 286.625Z"/>
	<path fill="#15527C" d="M111.672 213.875L112.244 214.012C110.779 216.043 107.98 216.616 105.625 216.244C102.063 214.761 111.192 213.954 111.672 213.875Z"/>
	<path fill="#118AB2" d="M360.806 266.625C361.226 266.551 361.625 266.602 362.049 266.625L362.472 267.125C362.283 268.688 360.457 269.541 359.125 269.952C358.37 270.003 358.065 270.008 357.375 269.628L357.257 269C358.201 267.784 359.329 267.052 360.806 266.625Z"/>
	<path fill="#AFFCFD" d="M57.5615 319.375L57.7798 319.875C54.7499 322.021 50.1562 322.82 46.625 324.243L45.9704 324.085C47.012 322.516 50.0424 321.803 51.75 321.244L57.5615 319.375Z"/>
	<path fill="#118AB2" d="M320.588 298.625L321.625 298.81C323.258 301.052 320.348 301.822 318.55 302.379C317.706 302.336 317.304 302.482 316.688 301.875L316.812 301.285C317.935 300.093 319.004 299.128 320.588 298.625Z"/>
	<path fill="#AFFCFD" d="M49.9424 277.847L61.7045 272.611C58.8218 275.51 54.6107 277.449 51.0696 279.434C51.5448 278.526 51.7575 278.482 52.625 278L52.6262 277.312C51.7352 277.646 50.8839 277.74 49.9424 277.847Z"/>
	<path fill="#78F5BD" d="M133.104 224.178C133.537 224.893 133.914 225.682 134.562 226.217L133.528 230.552C132.607 230.614 131.189 230.9 130.346 230.527C131.35 228.772 131.975 227.318 132.498 225.355L133.104 224.178Z"/>
	<path fill="#073B4C" d="M338.429 295.375L339.375 295.236C343.299 297.412 340.977 297.791 337.891 298.99C333.115 299.105 335.867 296.648 338.429 295.375Z"/>
	<path fill="#118AB2" d="M146.027 305.125L146.521 305.008C148.907 304.83 148.366 309.36 148.146 310.656L147.375 310.787C144.643 309.852 143.979 306.967 146.027 305.125Z"/>
	<path fill="#118AB2" d="M380.896 243.375C381.456 243.207 381.805 243.266 382.375 243.371L380.735 245.25C379.269 246.967 377.918 247.766 375.883 248.625C375.253 248.811 375.219 248.892 374.633 248.625L374.482 247.625C375.584 246.124 379.082 244.033 380.896 243.375Z"/>
	<path fill="#64D6DA" d="M241.937 317.757C241.447 316.797 241.152 316.466 241.255 315.375L241.943 314.375C243.606 314.076 245.867 314.793 247.391 315.447C245.706 317.039 244.662 317.884 242.398 318.569L241.937 317.757Z"/>
	<path fill="#6BEFDC" d="M228.582 325.602C228.947 326.677 228.755 326.953 227.835 327.623L227.26 328.042C224.472 328.372 222.052 328.979 219.612 330.409C219.358 329.924 219.084 329.515 218.748 329.082C220.59 327.402 226.216 326.244 228.582 325.602Z"/>
	<path fill="#64D6DA" d="M393.497 175.375L394.252 176.125C392.942 179.179 387.129 179.122 384.375 179.492C383.97 179.527 383.896 179.616 383.549 179.375C385.608 176.896 390.516 176.187 393.497 175.375Z"/>
	<path fill="#1A6C7A" d="M162.786 289.375C166.187 289.134 166.058 294.012 164.125 295.668L163.348 295.653C161.201 293.896 160.165 291.035 162.786 289.375Z"/>
	<path fill="#78F5BD" d="M38.102 329.556L32.4592 329.25C33.8323 328.945 35.3643 328.705 36.6761 328.195C40.7678 326.605 40.0118 325.744 44.283 327.125L44.5829 327.5C44.2398 328.204 43.9832 329.042 43.2935 329.457L43.0801 329.598L38.102 329.556Z"/>
	<path fill="#AFFCFD" d="M40.335 148.089C46.7079 144.151 53.2627 140.395 60.1828 137.521C57.951 139.551 55.1466 140.577 52.5893 142.097L41.0656 148.825L40.335 148.089Z"/>
	<path fill="#36F7D2" d="M26.7046 129.247C25.8663 131.267 24.2744 131.596 27.25 130.627L27.7968 130.468C29.8276 130.047 32.1235 128.844 34.1726 128.208C31.4771 130.546 26.5312 134.521 22.861 134.375L22.7204 132.769C23.839 132.131 25.6257 130.175 26.7046 129.247Z"/>
	<path fill="#118AB2" d="M187.956 297.496C188.569 297.486 189.14 297.663 189.729 297.812L188.932 299.934C187.954 301.376 186.881 302.541 185.125 302.883C179.822 301.603 185.54 298.156 187.956 297.496Z"/>
	<path fill="#6BEFDC" d="M231.917 324.724L235.359 322.812C236.266 323.93 236.911 324.734 236.667 326.25L236.082 328.393C234.477 328.549 232.946 328.526 231.336 328.446C231.169 327.112 231.496 325.982 231.917 324.724Z"/>
	<path fill="#E4FCFE" d="M371.299 232.595C373.991 232.156 371.337 237.729 366.875 237.8L366.559 237.687C363.007 235.722 368.437 232.945 371.299 232.595Z"/>
	<path fill="#6BEFDC" d="M391.461 145.296C398.081 146.515 390.092 151.306 389.874 151.815C389.404 151.997 389.006 152.158 388.5 152.195L387.947 151.306C387.914 150.054 388.13 149.288 388.667 148.162C389.412 146.915 390.151 145.969 391.461 145.296Z"/>
	<defs>
		<linearGradient id="gradient_3" gradientUnits="userSpaceOnUse" x1="22.7913" y1="154.052" x2="32.608898" y2="154.633">
			<stop offset="0" stop-color="#20FED2"/>
			<stop offset="1" stop-color="#58F1E8"/>
		</linearGradient>
	</defs>
	<path fill="url(#gradient_3)" d="M41.0656 148.825C35.4194 151.936 29.0934 155.285 22.9873 157.226L22.625 157.345C22.4922 156.08 22.5351 154.905 22.625 153.643C28.88 154.036 34.9538 150.907 40.335 148.089L41.0656 148.825Z"/>
	<path fill="#36F7D2" d="M484.934 199.642C485.593 199.931 486.183 200.202 486.768 200.63C490.246 203.341 491.332 203.883 487.157 208.915L485.509 209.22L485.43 209.051C485.015 208.203 484.956 207.831 485.092 206.889L485.134 206.625C484.852 205.998 484.55 205.867 484 205.471L483.332 205.635C483.286 204.96 483.405 204.786 483.654 204.172C483.744 202.579 484.308 201.091 484.934 199.642Z"/>
	<path fill="#78F5BD" d="M484.934 199.642C485.593 199.931 486.183 200.202 486.768 200.63C486.116 201.922 485.245 203.263 484.094 204.156L483.654 204.172C483.744 202.579 484.308 201.091 484.934 199.642Z"/>
	<defs>
		<linearGradient id="gradient_4" gradientUnits="userSpaceOnUse" x1="393.64999" y1="241.677" x2="394.35001" y2="228.323">
			<stop offset="0" stop-color="#E7FFFF"/>
			<stop offset="1" stop-color="white"/>
		</linearGradient>
	</defs>
	<path fill="url(#gradient_4)" d="M403.311 227.875L404.135 228.125C400.837 231.935 388.629 240.746 383.625 243.193C383.215 243.344 383.054 243.369 382.634 243.375C388.032 238.208 396.523 231.05 403.311 227.875Z"/>
	<path fill="#AFFCFD" d="M65.9985 322.204C73.7782 318.774 89.187 312.332 97.5986 310.973C88.3848 316.361 77.4378 317.956 68.1994 323.59C67.1818 323.214 66.645 323.129 65.9985 322.204Z"/>
	<path fill="white" d="M135.063 220.478C137.265 218.363 144.046 218.51 146.831 218.502L148.932 223.155C145.052 222.411 141.555 222.689 137.641 222.662L136.168 222.364C135.36 222.022 135.321 221.236 135.063 220.478Z"/>
	<path fill="#15527C" d="M275.695 331C283.279 331.857 290.209 329.795 297.618 329.301L298.038 329.735C297.616 330.646 297.809 331.146 298.009 332.096L298.022 332.189C296.111 334.31 295.191 333.018 292.524 333.013L282.605 333.301C280.634 333.35 278.696 333.473 276.75 333.102L275.217 332.816C275.43 332.241 275.544 331.596 275.695 331Z"/>
	<path fill="#118AB2" d="M130.346 230.527C126.175 234.567 119.297 219.205 131.35 221.375C131.519 222.74 132.061 224.054 132.498 225.355C131.975 227.318 131.35 228.772 130.346 230.527Z"/>
	<path fill="#6BEFDC" d="M389.919 159.003C394.734 158.901 396.274 160.513 395.065 164.613C393.817 165.165 392.503 165.505 391.192 165.874L390.156 166.065C382.624 167.538 384.136 161.426 389.919 159.003Z"/>
	<path fill="white" d="M49.9424 277.847C50.8839 277.74 51.7352 277.646 52.6262 277.312L52.625 278C51.7575 278.482 51.5448 278.526 51.0696 279.434L23.4736 297.405L23.7481 290.293C25.9623 290.286 29.3687 288.246 31.4833 287.144L49.9424 277.847Z"/>
	<path fill="white" d="M169.079 256.125C169.378 256.035 169.691 256.008 170 255.963L170.79 257.258C162.92 265.147 149.998 272.205 140.465 277.769C136.616 280.016 133.046 282.598 128.827 284.167C125.255 284.61 130.05 281.965 130.872 281.492L169.079 256.125Z"/>
	<path fill="white" d="M22.9043 169.915C25.2161 167.167 29.7416 164.977 32.8383 163.092L56.5123 149.666C52.8248 154.172 28.1151 172.251 22.9839 173.494L22.9043 169.915Z"/>
	<defs>
		<linearGradient id="gradient_5" gradientUnits="userSpaceOnUse" x1="63.138401" y1="198.60899" x2="35.982899" y2="183.25301">
			<stop offset="0" stop-color="#DCFFFF"/>
			<stop offset="1" stop-color="white"/>
		</linearGradient>
	</defs>
	<path fill="url(#gradient_5)" d="M23.8205 205.554L24.75 202.847C26.2595 202.558 27.7327 201.657 29.1052 200.961L56.2336 187.189L76.7334 175.512C80.2445 173.544 84.0908 171.09 87.875 169.764L58.9131 187.568L28.8506 204.369C27.3865 205.161 25.3794 206.646 23.7497 206.919L23.8205 205.554Z"/>
	<defs>
		<linearGradient id="gradient_6" gradientUnits="userSpaceOnUse" x1="458.36899" y1="92.148804" x2="460.974" y2="102.121">
			<stop offset="0" stop-color="#D7FFFF"/>
			<stop offset="1" stop-color="white"/>
		</linearGradient>
	</defs>
	<path fill="url(#gradient_6)" d="M481.765 85.0264C482.561 85.597 482.564 85.835 482.893 86.7283C480.162 88.8828 476.963 90.2008 473.968 91.9343C464.044 97.6786 453.482 104.2 442.467 107.679C440.137 106.911 438.418 106.034 436.477 104.534L436.752 104.255L437.16 104.398C441.677 105.348 449.011 101.504 453.064 99.5721L477.877 87.3064C479.198 86.5642 480.572 85.9744 481.765 85.0264Z"/>
	<path fill="white" d="M24.1536 265.09C36.4243 254.482 50.3707 245.732 64.2582 237.411C68.9279 234.613 73.6253 231.465 78.681 229.422C75.5046 232.019 71.7895 233.992 68.3901 236.284L30.7375 264.23C28.5256 266.014 26.4455 268.421 23.9194 269.704L24.1536 265.09Z"/>
	<path fill="white" d="M484.838 210.359C472.374 221.478 458.796 227.191 443.852 234.522L437.398 237.67C436.589 238.054 435.718 238.633 434.8 238.437L434.755 238C435.794 236.574 438.98 235.247 440.562 234.264L479.982 211.566C481.283 210.808 483.249 209.58 484.733 209.97L484.838 210.359Z"/>
	<path fill="white" d="M85.5239 241.625L86.1601 241.572C85.1044 242.643 83.501 243.489 82.2329 244.313L37.3202 272.732C33.2635 275.234 29.2156 277.641 25.375 280.472C24.889 280.077 24.6091 277.533 24.4716 276.773L58.2344 256.7C67.1311 251.344 76.0171 245.859 85.5239 241.625Z"/>
	<path fill="white" d="M24.2734 244.897C25.7611 243.111 27.8305 241.956 29.7751 240.727L41.5151 233.856C53.6211 226.834 63.8566 221.098 76.8951 215.956C75.3988 217.385 73.5526 218.324 71.7736 219.351L28.6215 247.021C27.4064 247.873 25.7803 249.249 24.2759 249.401C24.5063 247.938 24.3298 246.375 24.2734 244.897Z"/>
	<path fill="white" d="M23.7716 222.715L24.194 222.673C27.1684 222.024 30.3821 219.402 33.0491 217.893L43.3242 212.362C52.5648 207.553 62.1874 202.864 72.0101 199.369C69.9392 201.043 67.118 202.307 64.7973 203.659L35.8524 222.075C32.1721 224.565 28.5236 227.183 24.625 229.325L24.1608 228.545L23.7716 222.715Z"/>
	<path fill="white" d="M23.7542 307.546C24.8025 306.698 26.1937 306.382 27.4057 305.625L51.5494 290.404C66.0499 280.351 71.4295 275.76 88.4314 268.978C84.0731 272.791 73.9901 277.226 68.5755 280.823C62.439 284.9 56.7566 289.705 50.8718 294.126L28.7409 310.142C27.5315 311.029 24.854 313.808 23.5379 313.982L23.7542 307.546Z"/>
	<path fill="white" d="M23.7437 189.935L62.1412 167.893C67.5331 164.95 73.0207 161.604 78.744 159.392C71.1744 165.745 62.6236 171.112 54.3409 176.485L36.4692 187.672C32.1404 190.437 26.5287 193.404 23.7428 197.796L23.7437 189.935Z"/>
	<path fill="white" d="M23.3935 324.959C29.899 316.805 68.6009 298.166 78.7442 293.853C82.216 292.377 85.8666 290.608 89.5064 289.607L24.2113 329.37C23.5209 329.29 23.526 329.316 23.0592 328.807C23.3004 327.565 23.3038 326.223 23.3935 324.959Z"/>
	<defs>
		<linearGradient id="gradient_7" gradientUnits="userSpaceOnUse" x1="440.228" y1="145.28" x2="443.90701" y2="151.446">
			<stop offset="0" stop-color="#CAFCFB"/>
			<stop offset="1" stop-color="white"/>
		</linearGradient>
	</defs>
	<path fill="url(#gradient_7)" d="M481.429 127.125L482.749 127.375C480.608 130.887 468.262 137.149 464.5 139.481L443.555 152.299L427.673 160.125C422.63 162.417 417.379 163.99 412.189 165.875L403.875 169.314C402.323 169.876 402.683 168.332 403.185 167.389C403.988 165.886 416.825 162.016 419.041 161.063C424.178 158.854 429.078 156.143 434 153.502L473 131.225C475.747 129.714 478.388 127.98 481.429 127.125Z"/>
	<path fill="white" d="M481.61 167.375L482.325 167.5C480.031 176.386 448.162 190.509 440.25 194.754L426.502 202.207C423.916 203.575 421.193 205.237 418.375 206.025L417.752 205.875C420.626 202.755 424.773 200.658 428.327 198.409L472 172.243C475.172 170.501 478.23 168.707 481.61 167.375Z"/>
	<path fill="white" d="M475.193 242.768L435.556 259.839L454.621 247.735C464.152 242.147 473.635 236.337 481.875 228.927C483.159 227.772 484.288 226.475 485.615 225.366L486.212 225.49C486.251 227.182 486.254 228.607 485.805 230.25L485.691 230.688C485.177 232.562 484.138 234.241 483.306 235.986C482.586 236.76 481.905 237.498 481.057 238.139C479.697 239.032 478.33 240.16 477.163 241.296C476.712 241.618 475.416 242.331 475.193 242.768Z"/>
	<path fill="white" d="M22.4804 147.193C28.6921 144.311 39.0778 138.2 44.7696 134.415C57.7083 125.811 99.7595 93.7258 113.625 91.2785L113.755 91.625C111.982 93.3482 109.302 94.0964 107.182 95.3472L86.5393 108.07L36.4446 143.125C31.7991 146.112 27.2776 149.389 22.4027 151.985L22.4804 147.193Z"/>
	<path fill="white" d="M481.806 104.625L482.204 104.762C482.546 108.593 479.474 109.927 476.644 111.645L435.157 136.561C427.251 141.452 419.554 148.475 410.538 151.125L410.019 150.75C411.583 148.622 414.234 147.008 416.39 145.532L425.304 139.435C440.208 129.087 464.72 110.276 481.806 104.625Z"/>
	<path fill="white" d="M326.168 331.111C322.107 330.701 327.895 328.444 329.689 327.197L340.915 319.02C344.938 316.004 348.074 312.232 351.969 309.178C359.563 303.224 367.885 298.046 375.767 292.474L410.569 268.201C415.725 264.939 420.826 261.511 426.665 259.607C424.085 262.192 420.699 264.158 417.668 266.182L358.585 307.572C354.321 310.832 351.044 314.685 347.187 318.334C343.99 321.357 334.592 329.104 331.019 330.096L328.646 330.751L326.168 331.111Z"/>
	<path fill="white" d="M484.482 199.277C483.011 199.808 481.282 199.432 479.658 200.071C473.696 202.416 467.777 205.436 461.962 208.144L437.47 219.361C431.265 222.233 425.324 227.045 418.819 226.907C420.733 225.154 422.97 223.892 425.149 222.507L473.501 195.918C477.287 193.864 480.833 190.746 484.875 189.316C485.286 189.834 485.097 190.953 485.085 191.635C484.896 194.103 484.947 196.869 484.482 199.277Z"/>
	<path fill="white" d="M483.825 143.247L484.841 143.255C485.867 144.857 485.575 148.138 483.133 149.178C463.237 157.659 445.18 169.641 426.413 180.278L414.332 186.934C411.732 188.354 409.24 189.963 406.401 190.875C405.115 190.912 405.072 189.853 405.318 188.875C406.804 187.094 415.906 183.36 419.285 181.295L465.614 151.792L474.916 147.074C477.85 145.662 480.714 144.237 483.825 143.247Z"/>
	<path fill="white" d="M106.052 75.059L117.246 74.9012L117.03 75.1587C114.459 76.5267 111.646 77.5453 108.989 78.7434L92.347 86.8645C78.9277 94.205 66.2021 103.042 53.2964 111.264L31.2312 125.538C30.0153 126.403 27.3884 127.931 26.7046 129.247C25.6257 130.175 23.839 132.131 22.7204 132.769C22.7196 130.341 22.4608 128.704 23.4092 126.336C24.3189 125.248 25.9846 124.574 27.1886 123.83L52.1226 108.558L83.28 87.1319L100.955 76.4387C102.717 75.6257 104.117 75.2054 106.052 75.059Z"/>
	<path fill="white" d="M477.163 241.296C478.33 240.16 479.697 239.032 481.057 238.139C481.627 239.394 482.412 241.838 482.148 243.238C482.655 245.166 482.606 246.98 482.978 248.869L483.435 262.06C475.145 264.174 457.648 275.207 449.971 279.721L418.505 298.116L393.167 314.982C389.443 317.566 385.556 320.398 382.276 323.535C379.726 325.973 378.017 329.684 374.149 329.961L363.499 330.386L471.603 261.171C478.762 256.825 473.44 251.674 475.359 244.017L475.42 243.79L475.193 242.768C475.416 242.331 476.712 241.618 477.163 241.296Z"/>
	<path fill="#7CFAF7" d="M477.163 241.296C477.988 241.928 478.567 242.382 479.057 243.309L475.523 243.79L475.193 242.768C475.416 242.331 476.712 241.618 477.163 241.296Z"/>
	<path fill="#AFFCFD" d="M477.163 241.296C478.33 240.16 479.697 239.032 481.057 238.139C481.627 239.394 482.412 241.838 482.148 243.238C481.148 243.112 480.065 243.257 479.057 243.309C478.567 242.382 477.988 241.928 477.163 241.296Z"/>
	<path fill="white" d="M466.431 75.6866C470.158 75.279 480.6 77.8473 485.526 78.5042C486.066 78.6413 486.762 78.7302 487.247 78.9929C487.826 80.2549 486.662 83.5119 486.341 84.9458C485.304 85.3824 483.927 86.6207 482.893 86.7283C482.564 85.835 482.561 85.597 481.765 85.0264C480.572 85.9744 479.198 86.5642 477.877 87.3064L453.064 99.5721C449.011 101.504 441.677 105.348 437.16 104.398L436.752 104.255L436.477 104.534C426.883 100.238 416.508 107.169 408.642 112.061C402.063 116.154 395.215 120.483 390.352 126.64L390.038 126.315L390.388 120.009C394.205 118.361 398.012 115.723 401.598 113.494L416.998 104.247C421.952 101.445 426.991 99.9393 432.153 97.71C442.56 93.215 450.953 86.9219 458.979 79.1222C460.819 77.589 460.397 77.0914 462.892 76.6126C464.122 76.3908 465.275 76.1897 466.431 75.6866Z"/>
	<path fill="#06D6A0" d="M485.526 78.5042C486.066 78.6413 486.762 78.7302 487.247 78.9929C487.826 80.2549 486.662 83.5119 486.341 84.9458C485.304 85.3824 483.927 86.6207 482.893 86.7283C482.564 85.835 482.561 85.597 481.765 85.0264C480.572 85.9744 479.198 86.5642 477.877 87.3064L453.064 99.5721C449.011 101.504 441.677 105.348 437.16 104.398L436.752 104.255C436.434 103.655 436.246 103.583 436.375 102.892L485.526 78.5042Z"/>
	<path fill="#36F7D2" d="M487.247 78.9929C487.826 80.2549 486.662 83.5119 486.341 84.9458C485.304 85.3824 483.927 86.6207 482.893 86.7283C482.564 85.835 482.561 85.597 481.765 85.0264L481.751 84.7344C482.418 83.6711 485.985 79.5072 487.247 78.9929Z"/>
	<path fill="#06D6A0" d="M424.971 74.6637L452.328 75.5655L457.503 76.0379C457.218 76.4809 456.819 76.9687 456.653 77.4652L456.216 78.75C456.931 79.2583 458.099 79.0395 458.979 79.1222C450.953 86.9219 442.56 93.215 432.153 97.71C426.991 99.9393 421.952 101.445 416.998 104.247L401.598 113.494C398.012 115.723 394.205 118.361 390.317 120.009C390.003 115.233 390.5 109.993 391.029 105.24L391.067 103.58L389.604 85.7843C391.248 85.7264 393.564 84.5682 395.148 84.0492L405.541 80.7632C410.243 79.1214 414.822 76.9266 419.794 76.2224C421.353 76.2881 423.049 75.9999 424.61 75.8604L424.971 74.6637Z"/>
	<defs>
		<linearGradient id="gradient_8" gradientUnits="userSpaceOnUse" x1="444.98199" y1="89.853798" x2="445.789" y2="75.524002">
			<stop offset="0" stop-color="#C9FEFF"/>
			<stop offset="1" stop-color="white"/>
		</linearGradient>
	</defs>
	<path fill="url(#gradient_8)" d="M452.328 75.9217L457.503 76.0379C457.218 76.4809 456.819 76.9687 456.653 77.4652C455.48 78.2269 454.03 78.4645 452.75 79.0189C444.689 82.5109 438.001 88.479 430.339 92.6692C433.726 88.5784 446.623 79.4264 446.945 76.7983L446.984 76.3465L452.328 75.9217Z"/>
	<path fill="white" d="M424.971 74.6637L452.328 75.5655L446.984 76.2634L446.771 76.3648C445.168 76.4863 443.685 76.0026 442.072 76.4497C435.863 78.1721 430.187 82.0963 424.724 85.3839L399.406 100.99C396.699 102.591 393.844 103.854 391.029 105.24L391.067 103.58C391.507 102.236 392.69 101.969 393.824 101.276L398.831 98.2088C407.995 92.5704 419.51 85.8099 424.61 75.8298L424.971 74.6637Z"/>
	<path fill="#06D6A0" d="M419.794 76.2224C421.353 76.2881 423.049 75.9999 424.61 75.8604C419.51 85.8099 407.995 92.5704 398.831 98.2088L393.824 101.276C392.69 101.969 391.507 102.236 391.067 103.58L389.604 85.7843C391.248 85.7264 393.564 84.5682 395.148 84.0492L405.541 80.7632C410.243 79.1214 414.822 76.9266 419.794 76.2224Z"/>
	<path fill="#06D6A0" d="M483.59 262.06C484.352 265.628 484.087 269.75 484.177 273.391L484.756 287.266C484.952 291.344 485.896 295.674 485.521 299.745L485.745 305.39C486.105 307.976 486.125 310.498 486.258 313.095L486.663 327.903C484.023 328.753 480.878 328.748 478.117 328.791C471.87 328.888 475.359 328.851 472.878 331.124C472.923 330.366 472.966 330.18 472.625 329.515L470.904 329.08L441.747 330.078C440.315 330.339 436.986 331.66 435.956 330.372C432.268 330.235 428.284 330 424.652 330.772L409.486 330.708C405.794 330.582 396.975 330.405 394.218 329.774L390.315 329.805L378.265 330.158C377.485 330.14 374.704 329.8 374.149 330.198C378.017 329.684 379.726 325.973 382.276 323.535C385.556 320.398 389.443 317.566 393.167 314.982L418.505 298.116L449.971 279.721C457.648 275.207 475.145 264.174 483.59 262.06Z"/>
	<path fill="#6BEFDC" d="M390.315 329.805C390.722 328.286 393.702 326.091 394.932 325.134C395.534 326.714 395.917 327.896 397.219 329.049L394.218 329.683L390.315 329.805Z"/>
	<path fill="#E4FCFE" d="M394.932 325.134C396.913 323.637 412.309 316.119 414.334 316.408L414.771 316.486C412.046 319.268 408.249 320.736 405.292 323.26C401.464 326.527 402.842 328.565 397.219 329.049C395.917 327.896 395.534 326.714 394.932 325.134Z"/>
	<path fill="white" d="M480.228 279.005C480.77 278.971 481.234 279.034 481.769 279.125L481.799 279.625C479.311 284.077 466.313 291.309 461.37 294.328L444.85 304.072L443.75 304.443L443.649 303.778C445.272 300.577 451.861 296.966 454.74 294.951L471.832 283.54C474.556 281.864 477.167 280.006 480.228 279.005Z"/>
	<path fill="white" d="M435.956 330.372C438.782 327.678 442.299 325.351 445.394 322.951C457.349 313.682 470.469 303.184 485.521 299.745L485.745 305.39C473.244 309.752 462.042 315.671 451.012 322.931C447.849 325.012 445.034 328.353 441.747 330.018C440.315 330.339 436.986 331.66 435.956 330.372Z"/>
	<path fill="#06D6A0" d="M485.745 305.39C486.105 307.976 486.125 310.498 486.258 313.095L486.663 327.903C484.023 328.753 480.878 328.748 478.117 328.791C471.87 328.888 475.359 328.851 472.878 331.124C472.923 330.366 472.966 330.18 472.625 329.515L470.904 329.08L441.747 330.078C445.034 328.353 447.849 325.012 451.012 322.931C462.042 315.671 473.244 309.752 485.745 305.39Z"/>
	<path fill="#073B4C" d="M58.7674 390.204L58.5797 390.196C53.8895 390.149 49.2239 390.899 44.55 391.268C28.8163 392.513 10.368 390.387 9.57191 370.484L9.52322 283.216C9.51419 278.344 8.80909 273.631 8.78739 269.203L8.64552 120.625L7.46667 97.723C7.03329 78.0637 10.412 71.7023 30.3687 70.6441L52.8985 69.6454C58.4669 69.4503 63.9454 69.8059 69.5 69.9305L93.8799 71.3586C98.9338 71.6118 104.067 71.3116 109.097 71.7121C115.065 72.1874 120.691 73.607 126.557 74.5141C123.576 74.7936 120.139 74.4141 117.246 75.0417L106.052 75.0411C104.117 75.2054 102.717 75.6257 100.955 76.4387L83.28 87.1319L52.1226 108.558L27.1886 123.83C25.9846 124.574 24.3189 125.248 23.4092 126.336C22.4608 128.704 22.7196 130.341 22.7204 132.769C22.2155 136.686 21.6181 143.314 22.4601 147.193L22.4027 151.985C21.9344 157.315 21.8929 164.716 22.7772 169.915L22.9839 173.494L23.2131 183.379C23.2389 185.525 23.1295 187.832 23.5824 189.935L23.7563 197.796C23.4977 200.362 23.8043 202.978 23.7971 205.554L23.7497 206.919L23.6901 216.175C23.6771 218.344 23.5601 220.572 23.9375 222.715L23.8558 228.545C23.3122 233.591 23.5413 239.828 24.0481 244.897C24.3298 246.375 24.5063 247.938 24.2759 249.401C23.2918 253.189 23.5038 261.086 23.9312 265.09L23.8657 269.704C23.4432 271.941 23.2983 287.36 23.5202 290.293L23.7458 297.405C23.004 300.39 23.0462 304.607 23.7336 307.546L23.7216 313.982C22.8225 317.169 23.0184 321.703 23.2929 324.959C23.3038 326.223 23.3004 327.565 23.0592 328.807C23.526 329.316 23.5209 329.29 24.2113 329.37C25.4156 329.826 26.8792 329.76 28.1558 329.73L34.7741 329.528C35.8312 329.505 37.0676 329.347 38.102 329.57L43.0801 329.581L54.5099 330.164C57.8548 330.204 61.1713 329.679 64.5107 329.711L119.407 330.172C122.885 330.172 126.749 330.401 130.125 329.51C133.486 328.623 137.374 327.135 139.375 331.273L139.574 331.174C145.367 328.437 167.374 329.089 175.763 329.451L195.853 330.189C201 330.346 206.522 329.766 211.584 330.723L212.297 331.364L204.505 335.709C201.956 335.37 199.116 335.061 196.564 335.439L194.48 335.738L184.006 336.284C182.182 336.343 180.216 336.554 178.402 336.39C176.734 336.198 175.062 335.513 173.473 334.966L171.97 335.9L171.627 335.625C173.235 334.537 172.075 334.463 171.065 332.954L168.164 332.739C166.103 332.499 166.406 332.809 164.789 334.023L166.75 334.5C167.833 334.686 169.833 334.528 170.595 335.217L169.875 335.193C167.769 335.173 165.726 334.313 163.709 334.303C158.838 334.279 153.818 335.394 148.089 335.27L139.124 335.082L136.066 337.69L134.375 337.533C132.076 337.327 130.053 336.651 127.701 336.739L119.586 337.386C118.33 337.451 116.603 337.242 115.515 337.869L115.512 337.917L113.443 338.076C112.16 337.591 110.622 338.199 109.096 337.484L104.306 335.666C100.652 334.459 95.8512 336.08 93.0001 334.922C91.6549 334.449 90.3798 334.91 89.1329 335.405C86.072 333.321 75.568 333.965 72.1797 335.067C70.6199 335.574 68.2856 335.41 66.8363 334.835L66.0107 334.488C63.468 334.804 60.9538 334.97 58.563 335.942C53.8534 335.444 48.247 334.777 43.5506 335.869L37.6356 336.891C37.8032 337.53 37.9325 338.069 37.9116 338.738L23.3317 346.819C23.1384 350.418 23.6624 354.058 23.726 357.673L23.7945 368.849C23.8269 374.81 23.1387 379.137 29.8359 381.384C34.8693 383.073 55.5468 383.24 55.6362 388.154L55.875 388.907C56.8288 389.331 57.6195 389.315 58.6519 389.313L58.7674 390.204ZM23.3544 86.4862C32.2877 78.2941 40.6713 77.2465 51.7705 76.2038C53.7382 76.019 62.7392 75.1024 63.8089 74.6076L41.165 74.2534C37.7001 74.2267 32.209 74.3308 28.875 75.1534L28.5234 75.2366C24.6289 76.2269 23.8737 83.2776 23.3544 86.4862Z"/>
	<path fill="#0B607F" d="M127.701 336.739C130.533 335.727 136.309 334.662 139.124 335.046L136.066 337.69L134.375 337.533C132.076 337.327 130.053 336.651 127.701 336.739Z"/>
	<path fill="white" d="M22.5469 339.455C24.9096 338.713 33.9346 337.703 37.6356 336.891C37.8032 337.53 37.9325 338.069 37.9116 338.738L23.3317 346.819L22.5469 339.455Z"/>
	<path fill="#06D6A0" d="M84.9822 74.6482L93.8219 74.4426C95.5243 74.3957 97.4269 74.2157 99.0974 74.6045C101.465 74.4999 103.729 75.0375 106.052 75.059C104.117 75.2054 102.717 75.6257 100.955 76.4387L83.28 87.1319L52.1226 108.558L27.1886 123.83C25.9846 124.574 24.3189 125.248 23.4092 126.336L23.2765 109.999L23.3913 106.454C22.8412 103.168 22.7072 89.8608 23.3263 86.4862C32.2877 78.2941 40.6713 77.2465 51.7705 76.2038C53.7382 76.019 62.7392 75.1024 63.8089 74.5695L79.4666 74.7686C81.0695 74.7439 83.4621 75.0349 84.9822 74.6482Z"/>
	<path fill="#7CFAF7" d="M78.1368 77.2463C78.7813 77.4377 79.2707 77.5293 79.7012 78.0897C77.3479 80.1082 74.81 81.9529 72.1079 83.4742L78.1368 77.2463Z"/>
	<path fill="#6BEFDC" d="M79.4666 74.7761C81.0695 74.7439 83.4621 75.0349 84.9822 74.6482L79.7012 78.0897C79.2707 77.5293 78.7813 77.4377 78.1368 77.2463C78.691 76.4374 79.1141 75.6921 79.4666 74.7761Z"/>
	<path fill="white" d="M23.3913 106.454L23.9285 105.685C26.0272 104.905 27.8427 103.586 29.7274 102.399L69.8222 78.3434C67.3653 81.0973 65.257 82.8804 62.25 84.9939L52.6704 91.5446C43.1614 97.9578 33.5337 104.592 23.4103 109.999L23.3913 106.454Z"/>
	<path fill="#073B4C" d="M139.358 76.2616C176.201 76.0809 202.92 62.2841 234.586 44.5838L246.153 37.8308C250.272 35.5206 254.369 32.9144 259.096 34.8092C264.949 37.1549 270.638 40.7522 276.08 43.9177L298.399 56.2378C317.149 65.6431 338.345 73.5942 359.416 75.5766C364.756 76.079 382.689 75.7294 386.406 79.6179L386.68 79.9163C386.891 80.823 387.286 81.5551 387.939 82.2198C388.697 83.3857 389.262 84.4319 389.604 85.7843L391.054 103.58L391.029 105.24C390.5 109.993 390.003 115.233 390.363 120.009L390.058 126.315C390.189 127.968 390.339 129.558 390.831 131.153C388.563 133.249 386.543 135.02 385.966 138.25L385.903 138.565C385.616 140.205 385.961 142.114 386.125 143.765L386.457 146.35C386.327 147.647 386.168 148.924 386.271 150.228L385.86 156.052L385.753 156.258C385.128 157.511 384.593 163.568 384.07 165.68C381.605 175.627 379.481 185.677 376.24 195.414C365.838 226.666 349.241 251.935 323.535 272.22C316.509 277.764 309.015 282.327 301.406 287.001L282.842 298.172C277.073 301.445 261.983 309.527 255.507 311.321C249.036 309.153 246.1 307.128 238.992 308.706L214.641 293.961C201.843 285.494 190.778 276.386 180.492 264.96L173.094 256.472C163.292 246.124 158.879 243.918 151.909 229.306L150.947 227.324C150.348 225.894 149.799 224.449 148.932 223.155L146.831 218.502C145.66 215.34 143.945 212.414 142.644 209.303L136.567 192.743C127.75 167.273 123.184 139.983 121.427 113.149C120.89 104.934 119.684 96.4188 120.632 88.186L120.685 87.75C121.553 79.7847 133.471 78.0056 139.358 76.2616Z"/>
	<path fill="#05716F" d="M165.393 240.085L164.165 237.44L167.658 238.961C166.91 239.412 166.233 239.831 165.393 240.085Z"/>
	<path fill="#06D6A0" d="M357.17 203.509C357.943 202.646 360.184 199.718 360.318 202.25L360.342 203.45L357.17 203.509Z"/>
	<path fill="#36F7D2" d="M354.436 208.539C354.931 209.611 355.508 210.249 356.373 211.044C355.233 211.215 354.45 211.584 353.25 211.451L352.994 211C353.271 210.086 353.895 209.317 354.436 208.539Z"/>
	<path fill="#7BFEA3" d="M375.416 103.625L376.117 103.542C377.607 104.673 375.309 105.849 374.375 106.509L373.625 106.768C372.68 105.384 374.368 104.349 375.416 103.625Z"/>
	<path fill="#78F5BD" d="M151.586 164.939C152.109 164.693 152.601 164.73 153.169 164.707C153.299 165.796 153.336 166.528 154.132 167.351C153.955 168.206 153.363 168.792 152.744 169.373L151.586 164.939Z"/>
	<path fill="#049F76" d="M209.62 276.535C211.734 276.312 211.11 277.963 210.125 278.756L208.309 278.523C207.539 278.481 207.077 278.376 206.481 277.875L206.698 277.438C207.616 276.964 208.622 276.777 209.62 276.535Z"/>
	<path fill="#118AB2" d="M349.029 218.125C349.543 218.101 349.711 218.153 350.179 218.324L347.625 221.005C347.348 221.11 347.038 221.17 346.75 221.244L346.42 220.875C346.454 218.771 346.987 218.497 349.029 218.125Z"/>
	<path fill="#6BEFDC" d="M197.531 73.375L198.003 73.2984C200.663 74.7423 195.512 76.2263 194.625 76.4878L193.528 76.375C194.616 74.9957 196.009 74.1824 197.531 73.375Z"/>
	<path fill="#118AB2" d="M170.742 240.274C171.969 240.766 173.479 241.312 174.097 242.58L174.198 242.875C173.751 243.434 173.287 243.501 172.626 243.75C171.398 243.409 170.032 242.725 169.799 241.375L170.742 240.274Z"/>
	<path fill="#64D6DA" d="M242.685 52.8808C244.92 51.8147 247.073 51.3416 249.488 50.8841C248.375 51.8813 245.809 54.0493 244.243 54.2748C244.022 54.1417 243.842 53.9805 243.562 54.0012L242.624 53.7418L242.685 52.8808Z"/>
	<path fill="#6BEFDC" d="M338.455 228.431C340.706 227.952 342.961 228.026 345.252 227.678C342.95 229.58 340.683 230.29 338.046 231.55C337.647 230.617 337.341 229.883 337.603 228.875L338.455 228.431Z"/>
	<path fill="#06D6A0" d="M364.521 179.713C365.35 180.448 365.739 181.023 366.233 182L366.829 183.123C365.99 184.762 364.321 186.013 362.878 187.096C363.041 184.386 363.523 182.227 364.521 179.713Z"/>
	<path fill="#118AB2" d="M313.951 75.4348L312.039 75.25C313.699 72.5484 322.794 73.1417 317.767 75.7521C316.126 76.7074 314.58 77.8607 313.951 75.4348Z"/>
	<path fill="#049F76" d="M216.712 282.41L211.383 279.399C212.33 279.031 213.957 277.918 214.875 278.06L214.853 279.292L214.443 279.633L217.546 281.61C218.663 281.959 222.079 283.394 221.481 284.952C219.697 284.309 218.206 283.609 216.712 282.41Z"/>
	<path fill="#049F76" d="M332.091 254.125C332.512 254.181 332.307 254.09 332.648 254.5L332.511 254.882C331.887 256.45 328.4 259.249 326.875 259.947C323.049 259.689 329.919 254.638 332.091 254.125Z"/>
	<path fill="#F4F8E3" d="M293.349 278.323L292.852 277.946C293.095 276.427 295.718 273.947 297.075 273.792L296.921 274.009C295.044 276.798 296.324 280.563 294.875 283.682L294.5 283.788C293.558 282.691 293.528 279.78 293.349 278.323Z"/>
	<path fill="#008A7A" d="M167.658 238.961L170.742 240.274L169.799 241.375C170.032 242.725 171.398 243.409 172.626 243.75C172.231 243.746 172.396 243.726 171.989 243.819L170.667 244.125C166.756 245.056 166.449 243.446 165.393 240.085C166.233 239.831 166.91 239.412 167.658 238.961Z"/>
	<path fill="#78F5BD" d="M373.363 146.625L373.622 146.614C376.825 148.678 373.444 152.914 371.125 153.995L370.279 153.933C367.918 151.198 371.239 148.33 373.363 146.625Z"/>
	<path fill="#05716F" d="M220.516 277.594L231.768 287.84L229.038 288.199C225.62 288.843 224.054 286.732 221.481 284.952C222.079 283.394 218.663 281.959 217.546 281.61L214.443 279.633L214.853 279.292C216.149 280.515 217.927 280.831 219.387 281.789L219.625 281.956C220.404 282.412 220.978 282.762 221.534 283.504L221.874 283.938C222.902 284.67 222.911 284.538 223 285.625L223.562 285.251C224.57 285.888 225.399 285.376 226.397 285.716C229.394 286.739 228.273 286.709 230.375 287.75L221.517 279.195C221.121 278.806 220.9 278.549 220.691 278.038L220.516 277.594Z"/>
	<path fill="#049F76" d="M364.521 179.713C369.756 170.258 373.902 175.11 368.42 181.262C367.899 181.845 367.219 182.454 366.829 183.123L366.233 182C365.739 181.023 365.35 180.448 364.521 179.713Z"/>
	<path fill="#AFFCFD" d="M360.342 203.45C364.532 204.84 358.456 210.592 356.373 211.044C355.508 210.249 354.931 209.611 354.436 208.539C355.304 206.786 356.02 205.112 357.17 203.509L360.342 203.45Z"/>
	<defs>
		<linearGradient id="gradient_9" gradientUnits="userSpaceOnUse" x1="242.32401" y1="53.306198" x2="228.675" y2="61.691399">
			<stop offset="0" stop-color="#1EDCE6"/>
			<stop offset="1" stop-color="#74FFFD"/>
		</linearGradient>
	</defs>
	<path fill="url(#gradient_9)" d="M244.243 54.2748C238.857 57.4476 232.583 60.6464 226.524 62.1716C230.29 57.9081 237.487 54.7979 242.685 52.8808L242.624 53.7418L243.562 54.0012C243.842 53.9805 244.022 54.1417 244.243 54.2748Z"/>
	<path fill="#06D6A0" d="M146.613 141.005C145.469 136.918 145.14 132.675 144.719 128.469L143.517 94.4922C144.852 94.0308 146.294 93.9147 147.686 93.6947L155.25 92.5038C176.985 88.8458 196.242 80.0474 216.045 70.6412L233.25 62.2654C239.758 59.0412 245.64 55.8313 251.679 51.8076C255.445 53.5407 259.056 55.7822 262.665 57.8195L272.789 63.0903C295.07 74.1044 321.877 84.3725 346.75 88.0175C350.431 88.5569 354.367 88.6291 357.974 89.4156L365.604 90.2751L368.612 90.7581C367.394 98.7695 367.251 103.058 366.984 111.141L365.835 137.488C365.378 144.065 364.262 150.518 363.056 156.992L353.428 196.433C350.847 204.644 347.604 212.691 342.927 219.965C341.182 222.679 338.573 224.842 338.121 228.181L338.455 228.431L337.603 228.875C337.341 229.883 337.647 230.617 338.046 231.55C335.81 232.52 325.097 240.364 331.25 240.738L333.67 240.656L334.162 240.629C336.716 240.48 339.314 238.62 341.375 238.773L341.662 239.249C340.6 240.226 337.765 241.55 336.322 241.474L336.038 241.429C334.064 241.816 327.775 243.429 326.079 244.455C321.711 247.097 316.639 256.603 312.59 260.689C313.594 261.021 313.626 260.014 314.625 259.706L314.911 259.755C315.954 259.922 318.841 259.683 319.443 260.25C318.452 261.77 313.291 264.159 311.831 260.929C310.173 262.379 308.245 263.484 306.565 264.915C305.064 266.192 298.408 273.47 297.075 273.792C295.718 273.947 293.095 276.427 292.852 277.946L293.349 278.323C282.639 287.445 269.095 297.717 256.156 302.734L236.613 291.286C235.699 290.926 234.143 290.504 233.555 289.75L234.04 289.038L233.76 288C233.027 287.741 232.575 288.146 231.768 287.84L220.516 277.594C217.479 274.712 217.754 274.822 215.64 271.806L215.356 271.409C214.428 270.911 213.764 270.324 213.017 269.586L198.949 256.551C183.521 240.804 171.911 221 163.416 200.809L158.825 189.262C157.731 186.364 156.623 183.542 155.991 180.501L155.526 179.15C155.237 176.881 153.36 172.297 152.744 169.373C153.363 168.792 153.955 168.206 154.132 167.351C153.336 166.528 153.299 165.796 153.169 164.707C152.601 164.73 152.109 164.693 151.586 164.939C150.685 162.624 149.934 159.817 149.798 157.329L149.303 154.978C148.335 151.136 147.296 147.551 147.093 143.545L146.613 141.005Z"/>
	<path fill="#E4FCFE" d="M293.587 171.875C298.104 169.892 294.587 177.628 292.625 178.728C287.449 179.104 291.593 173.47 293.587 171.875Z"/>
	<path fill="white" d="M300.153 121.323C303.138 121.405 296.007 126.705 291.375 126.242C285.372 124.147 299.135 121.484 300.153 121.323Z"/>
	<path fill="#E4FCFE" d="M153.169 164.707L161.561 160.076C164.359 158.391 167.902 155.643 171.065 154.847C166.145 159.478 157.992 163.227 154.132 167.351C153.336 166.528 153.299 165.796 153.169 164.707Z"/>
	<path fill="white" d="M333.513 119.317C331.558 122.572 318.887 135.807 315.599 137.125L315.075 136.799C319.338 131.083 327.87 123.249 333.513 119.317Z"/>
	<path fill="#118AB2" d="M194.715 211.046C196.221 211.28 197.582 211.635 199.03 212.1C197.121 214.111 194.633 215.727 192.128 216.9C188.112 218.726 186.616 212.716 194.715 211.046Z"/>
	<path fill="#E4FCFE" d="M155.526 179.15L156.001 177.938C156.895 175.707 175.825 164.892 178.573 163.974C176.461 165.84 173.725 167.243 171.387 168.843C166.183 172.405 160.669 176.259 155.991 180.501L155.526 179.15Z"/>
	<path fill="white" d="M332.661 206.081C335.669 205.945 338.898 206.127 341.878 206.546C340.593 208.118 338.81 209.222 337.012 210.11C330.257 212.645 323.941 207.182 332.661 206.081Z"/>
	<path fill="white" d="M149.303 154.978L149.751 153.683C150.668 151.2 169.218 140.437 171.699 139.334L164.01 145.505C159.246 149.126 153.528 152.651 149.798 157.329L149.303 154.978Z"/>
	<defs>
		<linearGradient id="gradient_10" gradientUnits="userSpaceOnUse" x1="227.61099" y1="262.38699" x2="213.98199" y2="269.716">
			<stop offset="0" stop-color="#CDFFFF"/>
			<stop offset="1" stop-color="#F1FFFF"/>
		</linearGradient>
	</defs>
	<path fill="url(#gradient_10)" d="M213.017 269.586L239.875 251.408L220.976 267.125C219.143 268.599 217.387 270.203 215.356 271.409C214.428 270.911 213.764 270.324 213.017 269.586Z"/>
	<path fill="white" d="M303.123 95.875L303.157 96.1171C301.997 97.4194 300.591 98.5132 299.296 99.6809L293.458 105.26C289.908 108.809 286.764 112.801 283.077 116.202C281.665 117.505 280.407 117.752 279.283 119.375L278.375 119.407C278.145 118.489 278.133 117.386 277.985 116.433L303.123 95.875Z"/>
	<path fill="white" d="M146.613 141.005L158.896 131.675C163.856 128.139 169.077 124.533 174.735 122.218L147.093 143.545L146.613 141.005Z"/>
	<path fill="white" d="M291.254 231.875C292.043 231.748 292.313 231.969 292.004 232.75C289.721 238.531 273.294 252.228 266.125 255.713L265.427 255.72C267.485 253.686 269.867 251.971 271.977 249.963L283.64 238.67C286 236.378 288.418 233.542 291.254 231.875Z"/>
	<defs>
		<linearGradient id="gradient_11" gradientUnits="userSpaceOnUse" x1="224.71201" y1="245.636" x2="221.229" y2="240.40199">
			<stop offset="0" stop-color="#BEFFFF"/>
			<stop offset="1" stop-color="white"/>
		</linearGradient>
	</defs>
	<path fill="url(#gradient_11)" d="M208.464 253.569L243.192 225.97C241.32 228.97 238.671 231.076 236.031 233.367L208.476 256.095C207.178 257.19 205.525 258.799 204 259.513L203.507 259.237C203.049 259.037 202.775 258.955 202.377 258.625L208.464 253.569Z"/>
	<path fill="white" d="M234.04 289.038L252.426 276.675C256.005 274.545 259.562 272.506 263.612 271.422C260.724 274.385 240.349 289.318 236.613 291.286C235.699 290.926 234.143 290.504 233.555 289.75L234.04 289.038Z"/>
	<path fill="#E4FCFE" d="M224.514 165.625L224.954 165.762C223.452 167.615 221.153 169.201 219.318 170.735L178.959 203.957C177.25 205.426 175.575 206.83 174.392 208.773L171.375 209L170.894 208.625C172.795 206.432 175.189 204.76 177.408 202.907L212.902 174.216C216.701 171.239 220.386 168.145 224.514 165.625Z"/>
	<path fill="white" d="M342.873 168.875L342.923 169.139C342.126 170.969 340.659 172.516 339.32 173.968L299.037 213.858C296.798 216.157 294.704 218.865 291.875 220.456L291.573 220.124C293.252 217.261 296.365 214.442 298.606 211.986L337.432 173.428C339.19 171.873 340.931 170.197 342.873 168.875Z"/>
	<path fill="#073B4C" d="M228.352 172.312C238.866 171.129 237.668 185.164 229.832 186.582C217.881 186.197 220.816 174.891 228.352 172.312Z"/>
	<path fill="#073B4C" d="M274.53 187.362C267.292 173.026 252.719 170.772 240.162 164.016C229.293 158.169 221.152 148.116 223.696 135.25L223.776 134.833C226.167 122.805 239.402 116.069 250.239 113.35C249.651 108.349 248.449 98.5893 251.874 94.4728C253.671 92.3136 258.166 90.438 260.875 92.0044C263.212 94.8348 262.955 100.307 262.989 103.705L263.089 114.584L273.656 113.525L275.519 115.042C278.378 117.345 277.317 119.337 276.579 122.452C277.236 121.593 277.766 120.732 278.277 119.779L281.291 119.616C283.26 122.038 285.598 125.293 285.294 128.633C284.97 132.192 281.312 136.322 278.096 137.401C270.205 140.049 270.263 128.755 268.026 124.496L267.864 124.18C263.716 118.303 240.417 121.91 240.453 137.44C240.474 146.518 251.047 150.986 257.959 154.156L273.657 161.247C282.653 165.535 289.076 170.747 289.23 181.687C289.496 200.632 281.25 206.029 264.938 212.749C264.397 212.972 262.16 213.695 262.272 214.18C263.348 218.86 263.922 228.261 261.377 232.335C258.026 237.698 249.792 235.892 248.612 229.945L248.412 228.776C247.673 224.306 248.918 219.384 249.025 214.86C245.525 214.353 241.808 213.851 238.477 212.62C232.35 210.354 217.918 201.345 219.134 194.225C219.631 191.317 221.973 192.1 224.299 192.288C227.949 192.583 244.547 195.734 246.51 195.414C244.165 198.768 242.206 202.147 240.717 205.962C244.934 206.562 250.7 205.987 254.713 204.634C255.306 203.185 255.817 203.228 257.25 202.567L261.492 200.587C261.512 200.486 263.164 199.386 263.375 199.225C265.395 197.687 267.038 195.733 268.808 193.929L270.167 191.824C271.395 190.133 272.759 188.498 274.53 187.362Z"/>
	<defs>
		<linearGradient id="gradient_12" gradientUnits="userSpaceOnUse" x1="265.853" y1="203.16701" x2="266.19" y2="187.328">
			<stop offset="0" stop-color="#49F6BD"/>
			<stop offset="1" stop-color="#B0FFF9"/>
		</linearGradient>
	</defs>
	<path fill="url(#gradient_12)" d="M274.53 187.362C274.648 189.936 273.871 191.989 272.581 194.19C270.328 198.014 266.402 200.908 262.275 202.433C259.817 203.426 257.288 204.029 254.713 204.634C255.306 203.185 255.817 203.228 257.25 202.567L261.492 200.587C261.512 200.486 263.164 199.386 263.375 199.225C265.395 197.687 267.038 195.733 268.808 193.929L270.167 191.824C271.395 190.133 272.759 188.498 274.53 187.362Z"/>
	<path fill="#78F5BD" d="M254.713 204.634C255.306 203.185 255.817 203.228 257.25 202.567L261.492 200.587L261.24 200.952C260.537 201.893 256.273 203.134 259 203.125L261.034 202.394C261.508 202.292 261.81 202.342 262.275 202.433C259.817 203.426 257.288 204.029 254.713 204.634Z"/>
</svg>
